<?xml version="1.0" encoding="utf-8"?>
<!-- Generator: Adobe Illustrator 25.2.0, SVG Export Plug-In . SVG Version: 6.00 Build 0)  -->
<svg version="1.1" id="Ebene_1" xmlns="http://www.w3.org/2000/svg" xmlns:xlink="http://www.w3.org/1999/xlink" x="0px" y="0px"
	 viewBox="0 0 372.2 66.5" style="enable-background:new 0 0 372.2 66.5;" xml:space="preserve">
<style type="text/css">
	.st0{fill:none;}
	.st1{fill:#3C3C3B;}
	.st2{fill:#F28B2D;}
</style>
<g id="Space">
	<path class="st0" d="M-12.6-37.9h-12.6v16.3c0,4.9-4,8.9-8.9,8.9l0,0c-4.9,0-8.9-4-8.9-8.9h-12.7C-55.9-9.7-46.3,0.1-34.4,0.1
		c0,0,0,0,0,0c11.9,0.1,21.7-9.5,21.7-21.4c0,0,0,0,0,0L-12.6-37.9z"/>
	<rect x="-12.6" y="-50.5" class="st0" width="12.6" height="12.6"/>
	<rect x="-25.2" y="-63.1" class="st0" width="12.6" height="12.6"/>
	<path class="st0" d="M-12.6,88.3h-12.6v16.3c0,4.9-4,8.9-8.9,8.9h0c-4.9,0-8.9-4-8.9-8.9l0,0h-12.7c-0.1,11.9,9.5,21.6,21.4,21.7
		c0,0,0,0,0,0c11.9,0.1,21.6-9.5,21.7-21.4L-12.6,88.3z"/>
	<rect x="-12.6" y="75.7" class="st0" width="12.6" height="12.6"/>
	<rect x="-25.2" y="63.1" class="st0" width="12.6" height="12.6"/>
	<path class="st0" d="M415.4-37.9h-12.6v16.3c0,4.9-4,8.9-8.9,8.9l0,0c-4.9,0-8.9-4-8.9-8.9c0,0,0,0,0,0h-12.7
		c-0.1,11.9,9.5,21.7,21.4,21.7c0,0,0,0,0,0c11.9,0.1,21.7-9.5,21.7-21.4c0,0,0,0,0,0L415.4-37.9z"/>
	<rect x="415.4" y="-50.5" class="st0" width="12.6" height="12.6"/>
	<rect x="402.8" y="-63.1" class="st0" width="12.6" height="12.6"/>
	<path class="st0" d="M415.4,88.4h-12.6v16.3c0,4.9-4,8.9-8.9,8.9s-8.9-4-8.9-8.9l0,0h-12.7c-0.1,11.9,9.5,21.6,21.4,21.7
		c11.9,0.1,21.6-9.5,21.7-21.4L415.4,88.4z"/>
	<rect x="415.4" y="75.7" class="st0" width="12.6" height="12.6"/>
	<rect x="402.8" y="63.1" class="st0" width="12.6" height="12.6"/>
</g>
<g id="Digital_Solutions">
	<path class="st1" d="M63.2,43.4c1,0,2,0,3-0.2c0.5-0.1,0.9-0.4,1.2-0.8c0.2-0.5,0.3-1.1,0.3-1.7V12.6h5.2v27
		c0.1,1.8-0.2,3.7-0.8,5.4c-0.5,1.1-1.5,1.9-2.8,2.2c-2,0.4-4,0.6-6,0.5L63.2,43.4z M67.6,5.3V0h5.4v5.3H67.6z"/>
	<path class="st1" d="M80.6,36.5c-1.2-1.1-1.9-3-1.9-5.7c-0.1-1.6,0.2-3.1,0.7-4.6c0.4-1.1,1.3-1.9,2.3-2.4c1.5-0.6,3.1-0.8,4.7-0.7
		c1.8,0,4.6,0.1,8.4,0.2v-1.1c0.1-1.2-0.1-2.4-0.5-3.6c-0.4-0.7-1.1-1.2-1.9-1.4c-1.6-0.2-3.1-0.4-4.7-0.3c-1.1,0-2.4,0.1-3.9,0.1
		c-1.6,0.1-2.7,0.2-3.5,0.4v-4.4c3-0.5,6.1-0.8,9.2-0.7c2.3-0.1,4.6,0.2,6.8,1c1.4,0.6,2.4,1.7,2.9,3.1c0.6,1.9,0.8,4,0.7,6v15.5
		h-4.7l-0.2-3.2h-0.3c-0.7,1.4-1.9,2.4-3.3,2.9c-1.6,0.5-3.3,0.7-5,0.7C83.8,38.2,81.8,37.6,80.6,36.5z M92.1,33.2
		c0.8-0.2,1.5-0.7,2-1.4c0.7-1.4,1-2.8,0.9-4.4v-0.7h-7.1c-0.8,0-1.7,0.1-2.5,0.2c-0.5,0.1-0.9,0.5-1.2,1c-0.2,0.7-0.3,1.5-0.3,2.3
		c0,0.8,0.1,1.5,0.4,2.2c0.3,0.5,0.8,0.9,1.4,1c1.1,0.2,2.2,0.3,3.2,0.2C89.9,33.7,91,33.6,92.1,33.2z"/>
	<path class="st1" d="M111.7,47.8c-1.6-0.1-2.9-0.2-3.8-0.3v-4.3c2.7,0.1,5.2,0.2,7.4,0.2c1.7,0.1,3.5-0.1,5.2-0.6c1-0.3,1.7-1,2-2
		c0.4-1.6,0.5-3.2,0.5-4.8v-1.3h-0.2c-0.6,1.2-1.6,2.1-2.8,2.6c-1.5,0.5-3.1,0.7-4.7,0.7c-1.8,0.1-3.7-0.3-5.3-1.1
		c-1.4-0.9-2.3-2.3-2.7-3.9c-0.6-2.5-0.9-5.1-0.8-7.8c-0.1-2.7,0.2-5.3,0.8-7.9c0.4-1.6,1.3-3.1,2.7-4c1.6-0.9,3.5-1.3,5.3-1.2
		c1.6,0,3.2,0.2,4.7,0.8c1.3,0.5,2.4,1.6,3,2.9h0.3l0.2-3.3h4.7v22.2c0.1,2.7-0.2,5.3-0.7,7.9c-0.4,1.7-1.6,3.2-3.2,4
		c-1.6,0.9-4.2,1.3-7.6,1.3C114.9,47.9,113.3,47.9,111.7,47.8z M120.3,32.6c0.7-0.3,1.3-0.8,1.7-1.4c0.4-0.7,0.6-1.5,0.7-2.2
		c0.1-1.3,0.2-2.6,0.2-3.8c0-1.3,0-2.6-0.2-3.8c-0.1-0.8-0.3-1.6-0.7-2.2c-0.4-0.7-1-1.2-1.8-1.5c-1-0.4-2.1-0.5-3.1-0.5
		c-1.3-0.1-2.6,0.1-3.9,0.5c-0.8,0.4-1.4,1.2-1.5,2.1c-0.3,1.8-0.5,3.6-0.4,5.4c-0.1,1.8,0.1,3.6,0.4,5.3c0.1,0.9,0.7,1.7,1.5,2.1
		c1.2,0.4,2.6,0.6,3.9,0.5C118.3,33.1,119.3,33,120.3,32.6z"/>
	<path class="st1" d="M155.7,27h-16.2c-0.1,1.4,0.1,2.9,0.4,4.3c0.3,0.9,1.1,1.5,2,1.8c1.7,0.4,3.4,0.6,5.2,0.5
		c2.6,0,5.1-0.2,7.7-0.5v4.3c-1.3,0.3-2.7,0.5-4.1,0.5c-1.7,0.1-3.3,0.2-4.8,0.2c-3.5,0-6-0.4-7.6-1.2c-1.6-0.7-2.8-2.1-3.2-3.8
		c-0.6-2.6-0.8-5.2-0.7-7.9c-0.1-2.6,0.2-5.2,0.7-7.7c0.4-1.7,1.6-3.2,3.1-4c1.6-0.9,4-1.3,7.3-1.3s5.5,0.4,6.9,1.3
		c1.4,0.8,2.4,2.3,2.7,3.9c0.5,2.6,0.6,5.2,0.6,7.8L155.7,27z M141.5,17.3c-0.8,0.3-1.4,1-1.6,1.8c-0.3,1.4-0.5,2.8-0.4,4.1h11.3
		v-0.1c0.1-1.4-0.1-2.8-0.5-4.1c-0.2-0.8-0.8-1.5-1.6-1.8c-1.1-0.4-2.2-0.5-3.4-0.5C144.1,16.7,142.8,16.9,141.5,17.3L141.5,17.3z"
		/>
	<path class="st1" d="M177.2,24.2c0.1-1.6-0.1-3.2-0.3-4.8c-0.1-0.8-0.6-1.5-1.4-1.8c-1.2-0.3-2.4-0.5-3.6-0.4
		c-1.3-0.1-2.6,0.2-3.8,0.8c-0.8,0.5-1.4,1.4-1.6,2.3c-0.3,1.5-0.4,3-0.4,4.5v13h-5.1V12.6h4.8l0.1,3.3h0.4c0.6-1.2,1.5-2.2,2.7-2.8
		c1.6-0.7,3.4-1,5.1-0.9c1.8-0.1,3.6,0.3,5.2,1.1c1.2,0.7,2,1.8,2.4,3.1c0.5,1.8,0.7,3.7,0.6,5.6v15.8h-5.1L177.2,24.2z"/>
	<path class="st1" d="M197.8,37.4c-1.3-0.5-2.4-1.6-3-2.9h-0.3l-0.1,3.3h-4.8V0h5.1v15.5h0.3c0.7-1.2,1.7-2.1,3-2.6
		c1.5-0.5,3.1-0.8,4.8-0.7c1.8-0.1,3.6,0.3,5.2,1.2c1.4,0.9,2.3,2.4,2.6,4c0.6,2.6,0.9,5.2,0.8,7.9c0.1,2.7-0.2,5.3-0.8,7.9
		c-0.4,1.6-1.4,3-2.7,4c-1.6,0.9-3.5,1.3-5.3,1.2C201,38.2,199.3,38,197.8,37.4z M204.3,32.7c0.8-0.4,1.4-1.2,1.5-2.1
		c0.3-1.8,0.5-3.6,0.4-5.4c0.1-1.8-0.1-3.6-0.4-5.4c-0.1-0.9-0.7-1.7-1.5-2.1c-1.2-0.4-2.6-0.6-3.9-0.5c-1,0-2.1,0.1-3.1,0.4
		c-0.7,0.2-1.3,0.7-1.7,1.4c-0.4,0.7-0.7,1.5-0.8,2.3c-0.1,1.3-0.2,2.6-0.2,3.9c0,1.3,0.1,2.6,0.2,3.9c0.1,0.9,0.3,1.7,0.8,2.4
		c0.7,1.2,2.3,1.7,4.8,1.7C201.8,33.3,203.1,33.1,204.3,32.7L204.3,32.7z"/>
	<path class="st1" d="M238.1,27h-16.2c-0.1,1.4,0.1,2.9,0.4,4.3c0.3,0.9,1,1.5,1.9,1.8c1.7,0.4,3.4,0.6,5.2,0.5
		c2.6,0,5.1-0.2,7.7-0.5v4.3c-1.3,0.3-2.7,0.5-4.1,0.6c-1.6,0.1-3.3,0.2-4.8,0.2c-3.5,0-6-0.4-7.6-1.2c-1.6-0.7-2.7-2.2-3.2-3.8
		c-0.6-2.6-0.8-5.2-0.7-7.9c-0.1-2.6,0.2-5.2,0.7-7.7c0.4-1.7,1.6-3.2,3.1-4c1.6-0.9,4-1.3,7.3-1.3c3.2,0,5.5,0.4,6.9,1.3
		c1.4,0.8,2.4,2.3,2.7,3.9c0.4,2.6,0.6,5.2,0.6,7.8L238.1,27z M223.9,17.3c-0.8,0.3-1.4,1-1.6,1.8c-0.3,1.4-0.5,2.8-0.4,4.1h11.3
		v-0.1c0.1-1.4-0.1-2.8-0.5-4.1c-0.2-0.8-0.8-1.5-1.6-1.8c-1.1-0.3-2.2-0.5-3.4-0.5C226.4,16.7,225.1,16.9,223.9,17.3L223.9,17.3z"
		/>
	<path class="st1" d="M244.4,12.6h4.7l0.2,4.5h0.4c0.4-1.6,1.4-3,2.8-3.8c1.6-0.8,3.5-1.1,5.3-1.1v5.4c-1.7-0.1-3.5,0.3-5.1,1
		c-1.2,0.6-2.1,1.7-2.5,3c-0.5,1.9-0.8,3.8-0.7,5.7v10.5h-5.1L244.4,12.6z"/>
	<path class="st1" d="M267.6,47.8c-1.6-0.1-2.9-0.2-3.8-0.3v-4.3c2.7,0.1,5.2,0.2,7.4,0.2c1.7,0.1,3.5-0.1,5.1-0.6c1-0.3,1.7-1,2-2
		c0.4-1.6,0.5-3.2,0.5-4.8v-1.3h-0.2c-0.6,1.2-1.6,2.1-2.8,2.6c-1.5,0.5-3.1,0.7-4.7,0.7c-1.8,0.1-3.7-0.3-5.3-1.1
		c-1.4-0.9-2.4-2.3-2.8-3.9c-0.6-2.5-0.9-5.1-0.8-7.8c-0.1-2.7,0.2-5.3,0.8-7.9c0.4-1.6,1.4-3.1,2.8-4c1.6-0.8,3.5-1.2,5.3-1.1
		c1.6,0,3.2,0.2,4.7,0.8c1.3,0.5,2.4,1.6,3,2.9h0.3l0.2-3.3h4.7v22.1c0.1,2.7-0.2,5.3-0.8,7.9c-0.5,1.7-1.6,3.2-3.2,4
		c-1.6,0.9-4.2,1.3-7.6,1.3C270.8,47.9,269.2,47.9,267.6,47.8z M276.3,32.6c0.7-0.3,1.4-0.8,1.8-1.4c0.4-0.7,0.6-1.5,0.7-2.2
		c0.1-1.3,0.2-2.6,0.1-3.8c0-1.3,0-2.6-0.1-3.8c-0.1-0.8-0.3-1.6-0.7-2.2c-0.4-0.7-1-1.2-1.8-1.5c-1-0.3-2.1-0.5-3.1-0.5
		c-1.3-0.1-2.6,0.1-3.9,0.5c-0.8,0.4-1.4,1.2-1.5,2.1c-0.3,1.8-0.5,3.6-0.4,5.4c-0.1,1.8,0.1,3.6,0.4,5.3c0.1,0.9,0.7,1.7,1.5,2.1
		c1.2,0.4,2.6,0.6,3.9,0.5C274.2,33.1,275.3,33,276.3,32.6z"/>
	<path class="st1" d="M43.1,25.2H30.5v16.3c0,4.9-4,8.9-8.9,8.9s-8.9-4-8.9-8.9H0c-0.1,11.9,9.5,21.6,21.4,21.7s21.6-9.5,21.7-21.4
		L43.1,25.2z"/>
	<rect x="43.1" y="12.6" class="st2" width="12.6" height="12.6"/>
	<rect x="30.5" class="st1" width="12.6" height="12.6"/>
	<path class="st1" d="M63.2,51.4h4c5,0,5.2,1.2,5.2,5.8s-0.2,5.8-5.2,5.8h-4L63.2,51.4z M67.1,61.1c2.8,0,2.9,0,2.9-3.8
		s-0.1-3.8-2.9-3.8h-1.4v7.7H67.1z"/>
	<path class="st1" d="M75.9,50.5h2.3v2h-2.3V50.5z M75.9,54.5h2.3v8.7h-2.3V54.5z"/>
	<path class="st1" d="M82.2,66.4v-1.7h2.4c2.3,0,2.5-0.3,2.5-2.3v-0.5h-0.1c-0.6,0.8-1.5,1.3-2.5,1.1c-2.2,0-3-1-3-4.4
		s0.8-4.5,3-4.5c1-0.1,2,0.4,2.6,1.2h0.1l0.1-1.1h2.1V62c0,3.1-0.3,4.5-4.2,4.5C84.2,66.6,83.2,66.5,82.2,66.4z M86.9,60.6
		c0.2-0.6,0.3-1.3,0.3-1.9c0.1-0.6,0-1.3-0.3-1.9c-0.2-0.4-0.6-0.6-1.4-0.6c-1.5,0-1.7,0.2-1.7,2.5s0.2,2.5,1.7,2.5
		C86.3,61.2,86.7,61,86.9,60.6z"/>
	<path class="st1" d="M93.1,50.5h2.3v2h-2.3V50.5z M93.1,54.5h2.3v8.7h-2.3V54.5z"/>
	<path class="st1" d="M99.9,56.2h-1.7v-1.8h1.7v-2.5h2.3v2.5h2v1.8h-2v6.8h-2.3V56.2z"/>
	<path class="st1" d="M106.3,60.7c0-2,0.6-2.7,2.7-2.7l2.7,0.1v-0.3c0-1.5-0.3-1.6-2.3-1.6c-0.8,0-2,0.1-2.6,0.2v-1.7
		c1.1-0.2,2.2-0.3,3.3-0.3c3.4,0,3.8,1.1,3.8,3.5v5.3h-2.1l-0.1-1.1h-0.1c-0.6,0.9-1.7,1.3-2.7,1.2
		C107.2,63.2,106.3,62.5,106.3,60.7z M111.4,60.9c0.2-0.4,0.3-0.9,0.3-1.3v-0.2h-2c-1,0-1.2,0.1-1.2,1.1s0.2,1,1.5,1
		C110.7,61.4,111.2,61.3,111.4,60.9L111.4,60.9z"/>
	<path class="st1" d="M117.6,50.5h2.3v12.6h-2.3V50.5z"/>
	<path class="st1" d="M129.1,62.9V61c1.2,0.1,2.7,0.2,3.6,0.2c0.7,0.1,1.4,0,2.1-0.3c0.3-0.2,0.3-0.6,0.3-1.2c0-1-0.1-1.2-1-1.3
		l-2.5-0.3c-2.3-0.3-2.8-1.5-2.8-3.4c0-3.1,1.9-3.5,4.4-3.5c1.3,0,2.5,0.1,3.8,0.3v1.9c-1.1-0.1-2.2-0.2-3.3-0.2
		c-0.7-0.1-1.4,0-2,0.3c-0.4,0.2-0.4,0.5-0.4,1.1c0,1,0.1,1.1,1.1,1.3l2.7,0.3c0.9,0,1.6,0.4,2.1,1.1c0.3,0.7,0.5,1.5,0.4,2.2
		c0,3.3-1.7,3.7-4.1,3.7C131.9,63.2,130.5,63.1,129.1,62.9z"/>
	<path class="st1" d="M140.6,58.7c0-3.5,0.2-4.5,4-4.5s4,1,4,4.5s-0.2,4.5-4,4.5S140.6,62.2,140.6,58.7z M146.3,58.7
		c0-2.4,0-2.6-1.7-2.6s-1.7,0.3-1.7,2.6s0,2.7,1.7,2.7S146.3,61.1,146.3,58.7z"/>
	<path class="st1" d="M151.9,50.5h2.3v12.6h-2.3V50.5z"/>
	<path class="st1" d="M157.8,59.8v-5.4h2.2V59c0,2.1,0.2,2.3,1.5,2.3s1.6-0.7,1.6-2.4v-4.5h2.3v8.7h-2.1l-0.1-1.1h-0.1
		c-0.6,0.9-1.6,1.4-2.6,1.2C158.2,63.2,157.8,62,157.8,59.8z"/>
	<path class="st1" d="M170.1,56.2h-1.7v-1.8h1.7v-2.5h2.3v2.5h2v1.8h-2v6.8h-2.3V56.2z"/>
	<path class="st1" d="M177.1,50.5h2.3v2h-2.3V50.5z M177.1,54.5h2.3v8.7h-2.3V54.5z"/>
	<path class="st1" d="M182.7,58.7c0-3.5,0.2-4.5,4-4.5s4,1,4,4.5s-0.2,4.5-4,4.5S182.7,62.2,182.7,58.7z M188.4,58.7
		c0-2.4,0-2.6-1.7-2.6s-1.7,0.3-1.7,2.6s0,2.7,1.7,2.7S188.4,61.1,188.4,58.7z"/>
	<path class="st1" d="M194.1,54.4h2.1l0.1,1.1h0.1c0.6-0.9,1.6-1.4,2.6-1.2c2.4,0,2.7,1.2,2.7,3.4v5.4h-2.3v-4.6
		c0-2.1-0.1-2.3-1.5-2.3s-1.6,0.7-1.6,2.4v4.5h-2.3L194.1,54.4z"/>
	<path class="st1" d="M205.2,63v-1.7c0.7,0.1,2,0.2,2.9,0.2c1.5,0,1.7-0.2,1.7-0.9s-0.1-0.7-0.9-0.8l-2-0.3
		c-1.6-0.2-1.9-1.1-1.9-2.6c0-2.3,1.5-2.6,3.5-2.6c1,0,2,0.1,3,0.3v1.7c-0.9-0.1-1.8-0.2-2.6-0.2c-1.3,0-1.7,0.1-1.7,0.8
		s0.1,0.7,0.8,0.8l2.2,0.3c1.2,0.2,1.8,0.5,1.8,2.5c0,2.4-1.3,2.7-3.3,2.7C207.5,63.2,206.3,63.1,205.2,63z"/>
</g>
</svg>
