<?xml version="1.0" encoding="UTF-8"?>
<!-- Generator: Adobe Illustrator 25.4.1, SVG Export Plug-In . SVG Version: 6.00 Build 0)  -->
<svg xmlns="http://www.w3.org/2000/svg" xmlns:xlink="http://www.w3.org/1999/xlink" version="1.1" id="Ebene_1" x="0px" y="0px" viewBox="0 0 372.2 66.6" style="enable-background:new 0 0 372.2 66.6;" xml:space="preserve">
<style type="text/css">
	.st0{fill:none;}
	.st1{fill:#3C3C3B;}
	.st2{fill:#4372B7;}
</style>
<g id="Space">
	<path class="st0" d="M-12.6-37.8h-12.6v16.3c0,4.9-4,8.9-8.9,8.9l0,0c-4.9,0-8.9-4-8.9-8.9h-12.7C-55.9-9.6-46.3,0.1-34.4,0.2l0,0   c11.9,0.1,21.7-9.5,21.7-21.4l0,0L-12.6-37.8z"></path>
	<rect x="-12.6" y="-50.5" class="st0" width="12.6" height="12.6"></rect>
	<rect x="-25.2" y="-63.1" class="st0" width="12.6" height="12.6"></rect>
	<path class="st0" d="M-12.6,88.4h-12.6v16.3c0,4.9-4,8.9-8.9,8.9l0,0c-4.9,0-8.9-4-8.9-8.9l0,0h-12.7c-0.1,11.9,9.5,21.6,21.4,21.7   l0,0c11.9,0.1,21.6-9.5,21.7-21.4L-12.6,88.4z"></path>
	<rect x="-12.6" y="75.8" class="st0" width="12.6" height="12.6"></rect>
	<rect x="-25.2" y="63.1" class="st0" width="12.6" height="12.6"></rect>
	<path class="st0" d="M415.4-37.8h-12.6v16.3c0,4.9-4,8.9-8.9,8.9l0,0c-4.9,0-8.9-4-8.9-8.9l0,0h-12.7c-0.1,11.9,9.5,21.7,21.4,21.7   l0,0c11.9,0.1,21.7-9.5,21.7-21.4l0,0V-37.8z"></path>
	<rect x="415.4" y="-50.5" class="st0" width="12.6" height="12.6"></rect>
	<rect x="402.8" y="-63.1" class="st0" width="12.6" height="12.6"></rect>
	<path class="st0" d="M415.4,88.4h-12.6v16.3c0,4.9-4,8.9-8.9,8.9s-8.9-4-8.9-8.9l0,0h-12.7c-0.1,11.9,9.5,21.6,21.4,21.7   s21.6-9.5,21.7-21.4V88.4z"></path>
	<rect x="415.4" y="75.8" class="st0" width="12.6" height="12.6"></rect>
	<rect x="402.8" y="63.2" class="st0" width="12.6" height="12.6"></rect>
</g>
<g>
	<g>
		<path class="st1" d="M66.1,61.2c2.4,0,2.4-0.2,2.4-2.5v-7.3h2.4V58c0,4.9-0.2,5.1-4.8,5.1V61.2z"></path>
		<path class="st1" d="M73.7,60.7c0-2,0.6-2.7,2.7-2.7c0.4,0,1.8,0,2.7,0.1v-0.3c0-1.5-0.3-1.6-2.3-1.6c-0.7,0-2,0.1-2.5,0.2v-1.7    c1-0.2,2.2-0.3,3.3-0.3c3.4,0,3.8,1.1,3.8,3.5v5.3h-2.1L79.2,62H79c-0.6,1.1-1.8,1.2-2.7,1.2C74.6,63.2,73.7,62.5,73.7,60.7z     M78.8,60.9c0.2-0.3,0.3-0.7,0.3-1.3v-0.3h-2c-1,0-1.2,0.1-1.2,1.1c0,0.9,0.2,1,1.5,1C78.1,61.5,78.6,61.4,78.8,60.9z"></path>
		<path class="st1" d="M84.9,66.4v-1.7c0.7,0,1.7,0.1,2.4,0.1c2.3,0,2.5-0.3,2.5-2.3V62h-0.1c-0.5,0.9-1.4,1.1-2.5,1.1    c-2.2,0-3-1-3-4.4c0-3.5,0.8-4.5,3-4.5c1,0,2,0.2,2.5,1.2h0.1l0.1-1.1H92v7.6c0,3.1-0.3,4.5-4.2,4.5    C86.8,66.6,85.5,66.5,84.9,66.4z M89.5,60.6c0.2-0.4,0.3-1,0.3-1.9c0-0.9,0-1.5-0.3-1.9c-0.2-0.4-0.6-0.6-1.4-0.6    c-1.5,0-1.7,0.2-1.7,2.5c0,2.2,0.2,2.5,1.7,2.5C88.9,61.2,89.3,61,89.5,60.6z"></path>
		<path class="st1" d="M102.6,59.4h-5.4c0,1.7,0.1,2,2.4,2c0.7,0,1.8-0.1,2.6-0.2V63c-0.7,0.2-2.1,0.3-3.2,0.3    c-3.8,0-4.2-1.2-4.2-4.5c0-3.1,0.4-4.5,4-4.5c3.6,0,3.7,1.4,3.7,4.5V59.4z M97.2,58h3.3c0-1.8-0.3-2-1.6-2    C97.4,56.1,97.2,56.4,97.2,58z"></path>
		<path class="st1" d="M105.4,54.4h2.1l0.1,1.1h0.1c0.4-0.9,1.3-1.2,2.6-1.2c2.4,0,2.7,1.2,2.7,3.4v5.4h-2.3v-4.6    c0-2.1-0.1-2.3-1.5-2.3c-1.5,0-1.6,0.7-1.6,2.4v4.5h-2.3V54.4z"></path>
		<path class="st1" d="M118.6,62h-0.1l-0.1,1.1h-2.1V50.5h2.3v4.9h0.1c0.5-0.9,1.4-1.1,2.5-1.1c2.1,0,2.9,1,2.9,4.5    c0,3.5-0.8,4.5-3,4.5C120.1,63.2,119.1,63,118.6,62z M121.8,58.8c0-2.3-0.2-2.5-1.7-2.5c-0.7,0-1.1,0.2-1.3,0.5    c-0.3,0.4-0.3,1.1-0.3,2c0,0.9,0.1,1.6,0.3,2c0.2,0.4,0.6,0.5,1.3,0.5C121.7,61.3,121.8,61.1,121.8,58.8z"></path>
		<path class="st1" d="M134.3,59.4h-5.4c0,1.7,0.1,2,2.4,2c0.7,0,1.8-0.1,2.6-0.2V63c-0.7,0.2-2.1,0.3-3.2,0.3    c-3.8,0-4.2-1.2-4.2-4.5c0-3.1,0.4-4.5,4-4.5c3.6,0,3.7,1.4,3.7,4.5V59.4z M128.9,58h3.3c0-1.8-0.3-2-1.6-2    C129.1,56.1,128.9,56.4,128.9,58z"></path>
		<path class="st1" d="M137.2,54.4h2.1l0.1,1.5h0.1c0.5-1.3,1.4-1.6,2.8-1.6v2.2c-2.2,0-2.8,0.8-2.8,3.2v3.5h-2.3V54.4z"></path>
		<path class="st1" d="M144.9,66.4v-1.7c0.7,0,1.7,0.1,2.4,0.1c2.3,0,2.5-0.3,2.5-2.3V62h-0.1c-0.5,0.9-1.4,1.1-2.5,1.1    c-2.2,0-3-1-3-4.4c0-3.5,0.8-4.5,3-4.5c1,0,2,0.2,2.5,1.2h0.1l0.1-1.1h2.1v7.6c0,3.1-0.3,4.5-4.2,4.5    C146.8,66.6,145.5,66.5,144.9,66.4z M149.5,60.6c0.2-0.4,0.3-1,0.3-1.9c0-0.9,0-1.5-0.3-1.9c-0.2-0.4-0.6-0.6-1.4-0.6    c-1.5,0-1.7,0.2-1.7,2.5c0,2.2,0.2,2.5,1.7,2.5C148.9,61.2,149.3,61,149.5,60.6z"></path>
		<path class="st1" d="M160,57.2c0-4.7,0.9-6,5.2-6c1.5,0,3.2,0.2,3.9,0.4v1.9c-0.7-0.1-2.2-0.3-2.9-0.3c-3.2,0-3.7,0.1-3.7,4    c0,3.5,0.3,4,2.8,4c0.5,0,1.1,0,1.5-0.1v-2.8h-1.9v-1.9h4.2v6.4c-1.2,0.2-2.8,0.4-3.9,0.4C160.9,63.2,160,62.1,160,57.2z"></path>
		<path class="st1" d="M172.3,54.4h2.1l0.1,1.5h0.1c0.5-1.3,1.4-1.6,2.8-1.6v2.2c-2.2,0-2.8,0.8-2.8,3.2v3.5h-2.3V54.4z"></path>
		<path class="st1" d="M179.4,58.7c0-3.5,0.2-4.5,4-4.5c3.8,0,4,1,4,4.5s-0.2,4.5-4,4.5C179.6,63.2,179.4,62.2,179.4,58.7z     M185.1,58.7c0-2.4,0-2.6-1.7-2.6c-1.7,0-1.7,0.3-1.7,2.6c0,2.4,0,2.7,1.7,2.7C185.1,61.4,185.1,61.1,185.1,58.7z"></path>
		<path class="st1" d="M190.2,59.8v-5.4h2.3V59c0,2.1,0.2,2.3,1.5,2.3c1.5,0,1.6-0.7,1.6-2.4v-4.5h2.3v8.7h-2.1l-0.1-1.1h-0.1    c-0.4,0.9-1.3,1.2-2.6,1.2C190.6,63.2,190.2,62.1,190.2,59.8z"></path>
		<path class="st1" d="M201,54.4h2.1l0.1,1.1h0.1c0.5-1,1.6-1.2,2.6-1.2c2.1,0,3,1,3,4.5s-0.8,4.5-2.9,4.5c-1.1,0-2-0.2-2.5-1.1    h-0.1v4.3H201V54.4z M206.6,58.8c0-2.3-0.2-2.5-1.7-2.5c-0.8,0-1.2,0.2-1.4,0.7c-0.2,0.4-0.2,1-0.2,1.9c0,0.8,0,1.4,0.2,1.9    c0.2,0.5,0.6,0.7,1.4,0.7C206.4,61.3,206.6,61.1,206.6,58.8z"></path>
	</g>
	<g>
		<path class="st1" d="M43.2,25.2H30.5c0,0,0,16.2,0,16.3c0,4.9-4,8.9-8.9,8.9c-4.9,0-8.9-4-8.9-8.9c0,0,0,0,0,0H0c0,0,0,0,0,0    c0,11.9,9.7,21.6,21.6,21.6c11.8,0,21.4-9.5,21.6-21.3L43.2,25.2z"></path>
		<rect x="43.2" y="12.6" class="st2" width="12.6" height="12.6"></rect>
		<rect x="30.5" y="0" class="st1" width="12.6" height="12.6"></rect>
	</g>
	<g>
		<path class="st1" d="M66.1,12.8h5.3l5.3,19h0.4l5.5-19h4.9l5.5,19h0.4l5.2-19h5.2l-7.6,25h-6.2l-5-16.5h-0.3l-4.9,16.5h-6.2    L66.1,12.8z"></path>
		<path class="st1" d="M107.7,25.3c0-10,2.2-12.9,8.8-12.9c3.6,0,6.3,0.7,7.7,3.3h0.3V1.3h5.2v36.4h-4.8l-0.2-3.3h-0.3    c-1.5,3.1-4.7,3.7-7.8,3.7C109.9,38.1,107.7,35.3,107.7,25.3z M123.8,31.2c0.6-1.5,0.7-3.4,0.7-6c0-2.5,0-4.4-0.6-5.6    c-0.7-1.8-2.3-2.5-5.1-2.5c-5.1,0-5.8,0.9-5.8,8.2c0,7.4,0.6,8.3,5.8,8.3C121.6,33.5,123.1,32.8,123.8,31.2z"></path>
		<path class="st1" d="M141.5,34.5h-0.3l-0.1,3.3h-4.8V1.3h5.2v14.4h0.3c1.5-2.6,4.2-3.3,7.8-3.3c6.6,0,8.7,2.9,8.7,12.9    s-2.3,12.9-8.9,12.9C146.2,38.1,143,37.6,141.5,34.5z M153,25.3c0-7.3-0.6-8.2-5.8-8.2c-2.5,0-4.1,0.6-4.8,1.9    c-0.8,1.4-1,3.4-1,6.3c0,2.8,0.1,4.9,1,6.3c0.7,1.4,2.3,2,4.8,2C152.4,33.5,153,32.7,153,25.3z"></path>
	</g>
</g>
</svg>
