<?xml version="1.0" encoding="UTF-8"?>
<!-- Generator: Adobe Illustrator 25.4.1, SVG Export Plug-In . SVG Version: 6.00 Build 0)  -->
<svg xmlns="http://www.w3.org/2000/svg" xmlns:xlink="http://www.w3.org/1999/xlink" version="1.1" id="Ebene_1" x="0px" y="0px" viewBox="0 0 372.2 66.6" style="enable-background:new 0 0 372.2 66.6;" xml:space="preserve">
<style type="text/css">
	.st0{fill:none;}
	.st1{fill:#3C3C3B;}
	.st2{fill:#4372B7;}
</style>
<g id="Space">
	<path class="st0" d="M-12.6-37.8h-12.6v16.3c0,4.9-4,8.9-8.9,8.9l0,0c-4.9,0-8.9-4-8.9-8.9h-12.7C-55.9-9.6-46.3,0.1-34.4,0.2l0,0   c11.9,0.1,21.7-9.5,21.7-21.4l0,0L-12.6-37.8z"></path>
	<rect x="-12.6" y="-50.5" class="st0" width="12.6" height="12.6"></rect>
	<rect x="-25.2" y="-63.1" class="st0" width="12.6" height="12.6"></rect>
	<path class="st0" d="M-12.6,88.4h-12.6v16.3c0,4.9-4,8.9-8.9,8.9l0,0c-4.9,0-8.9-4-8.9-8.9l0,0h-12.7c-0.1,11.9,9.5,21.6,21.4,21.7   l0,0c11.9,0.1,21.6-9.5,21.7-21.4L-12.6,88.4z"></path>
	<rect x="-12.6" y="75.8" class="st0" width="12.6" height="12.6"></rect>
	<rect x="-25.2" y="63.1" class="st0" width="12.6" height="12.6"></rect>
	<path class="st0" d="M415.4-37.8h-12.6v16.3c0,4.9-4,8.9-8.9,8.9l0,0c-4.9,0-8.9-4-8.9-8.9l0,0h-12.7c-0.1,11.9,9.5,21.7,21.4,21.7   l0,0c11.9,0.1,21.7-9.5,21.7-21.4l0,0V-37.8z"></path>
	<rect x="415.4" y="-50.5" class="st0" width="12.6" height="12.6"></rect>
	<rect x="402.8" y="-63.1" class="st0" width="12.6" height="12.6"></rect>
	<path class="st0" d="M415.4,88.4h-12.6v16.3c0,4.9-4,8.9-8.9,8.9s-8.9-4-8.9-8.9l0,0h-12.7c-0.1,11.9,9.5,21.6,21.4,21.7   s21.6-9.5,21.7-21.4V88.4z"></path>
	<rect x="415.4" y="75.8" class="st0" width="12.6" height="12.6"></rect>
	<rect x="402.8" y="63.2" class="st0" width="12.6" height="12.6"></rect>
</g>
<g id="atlas">
	<path class="st1" d="M66.1,61.3c2.4,0,2.4-0.2,2.4-2.6v-7.3h2.4v6.6c0,4.9-0.2,5.1-4.8,5.1V61.3z"></path>
	<path class="st1" d="M73.7,60.7c0-2,0.6-2.7,2.7-2.7c0.4,0,1.8,0,2.6,0.1v-0.3c0-1.5-0.3-1.6-2.3-1.6c-0.8,0-2,0.1-2.6,0.2v-1.7   c1.1-0.2,2.2-0.3,3.3-0.3c3.4,0,3.8,1.1,3.8,3.5v5.3h-2.1l-0.1-1.1h-0.1c-0.6,0.9-1.7,1.3-2.7,1.2C74.6,63.3,73.7,62.6,73.7,60.7z    M78.8,61c0.2-0.4,0.3-0.9,0.2-1.3v-0.2h-2c-1,0-1.1,0.1-1.1,1.1s0.2,1,1.5,1C78.1,61.5,78.6,61.4,78.8,61L78.8,61z"></path>
	<path class="st1" d="M84.9,66.4v-1.7c0.7,0,1.7,0,2.4,0c2.3,0,2.5-0.3,2.5-2.3V62h-0.1c-0.6,0.8-1.5,1.3-2.5,1.1c-2.2,0-3-1-3-4.4   s0.8-4.5,3-4.5c1-0.1,2,0.4,2.6,1.2h0.1l0.1-1.1h2.1v7.7c0,3.1-0.3,4.5-4.2,4.5C86.9,66.6,85.9,66.6,84.9,66.4z M89.5,60.7   c0.2-0.6,0.3-1.3,0.3-1.9c0.1-0.6,0-1.3-0.2-1.9c-0.2-0.4-0.6-0.6-1.4-0.6c-1.5,0-1.7,0.2-1.7,2.5s0.1,2.5,1.7,2.5   C88.9,61.2,89.3,61.1,89.5,60.7z"></path>
	<path class="st1" d="M102.6,59.5h-5.4c0,1.7,0.1,2,2.4,2c0.7,0,1.8-0.1,2.6-0.2V63c-1,0.2-2.1,0.3-3.2,0.3c-3.8,0-4.2-1.2-4.2-4.4   s0.4-4.5,4-4.5s3.7,1.4,3.7,4.5L102.6,59.5z M97.2,58.1h3.3c0-1.8-0.3-2-1.6-2C97.4,56.1,97.2,56.4,97.2,58.1z"></path>
	<path class="st1" d="M105.4,54.5h2.1l0.1,1.1h0.1c0.6-0.9,1.6-1.4,2.6-1.2c2.4,0,2.7,1.2,2.7,3.4v5.4h-2.3v-4.6   c0-2.1-0.1-2.3-1.5-2.3s-1.6,0.7-1.6,2.4v4.5h-2.3L105.4,54.5z"></path>
	<path class="st1" d="M118.6,62.1h-0.1l-0.1,1.1h-2.1V50.5h2.3v4.9h0.1c0.6-0.8,1.6-1.2,2.6-1.1c2.1,0,2.9,1,2.9,4.5s-0.8,4.5-3,4.5   C120.1,63.4,119.1,62.9,118.6,62.1z M121.8,58.8c0-2.3-0.2-2.5-1.7-2.5c-0.7,0-1.1,0.2-1.3,0.5c-0.3,0.6-0.4,1.3-0.3,2   c-0.1,0.7,0,1.4,0.3,2c0.2,0.4,0.6,0.5,1.3,0.5C121.7,61.3,121.8,61.1,121.8,58.8z"></path>
	<path class="st1" d="M134.3,59.5h-5.4c0,1.7,0.1,2,2.4,2c0.7,0,1.8-0.1,2.6-0.2V63c-1,0.2-2.1,0.3-3.2,0.3c-3.8,0-4.2-1.2-4.2-4.4   s0.4-4.5,4-4.5c3.6,0,3.7,1.4,3.7,4.5L134.3,59.5z M128.9,58.1h3.3c0-1.8-0.3-2-1.6-2C129.1,56.1,128.9,56.4,128.9,58.1L128.9,58.1   z"></path>
	<path class="st1" d="M137.2,54.5h2.1l0.1,1.5h0.1c0.5-1.3,1.4-1.6,2.8-1.6v2.2c-2.2,0-2.8,0.8-2.8,3.2v3.5h-2.3L137.2,54.5z"></path>
	<path class="st1" d="M144.9,66.4v-1.7c0.7,0,1.7,0,2.4,0c2.3,0,2.5-0.3,2.5-2.3V62h-0.1c-0.6,0.8-1.5,1.3-2.5,1.1c-2.2,0-3-1-3-4.4   s0.8-4.5,3-4.5c1-0.1,2,0.4,2.6,1.2h0.1l0.1-1.1h2.1v7.7c0,3.1-0.3,4.5-4.2,4.5C146.9,66.6,145.9,66.6,144.9,66.4z M149.5,60.7   c0.2-0.6,0.3-1.3,0.3-1.9c0.1-0.6,0-1.3-0.2-1.9c-0.2-0.4-0.6-0.6-1.4-0.6c-1.5,0-1.7,0.2-1.7,2.5s0.2,2.5,1.7,2.5   C148.9,61.2,149.3,61.1,149.5,60.7z"></path>
	<path class="st1" d="M160.1,57.3c0-4.7,0.9-6,5.1-6c1.3,0,2.6,0.1,3.9,0.4v1.9c-1-0.1-1.9-0.2-2.9-0.3c-3.2,0-3.6,0.1-3.6,4   c0,3.5,0.3,4,2.8,4c0.5,0,1,0,1.5-0.1v-2.8h-1.9v-1.9h4.2v6.4c-1.3,0.2-2.6,0.4-3.9,0.4C160.9,63.3,160.1,62.2,160.1,57.3z"></path>
	<path class="st1" d="M172.3,54.5h2.1l0.1,1.5h0.1c0.5-1.3,1.4-1.6,2.8-1.6v2.2c-2.2,0-2.8,0.8-2.8,3.2v3.5h-2.3L172.3,54.5z"></path>
	<path class="st1" d="M179.4,58.8c0-3.5,0.2-4.5,4-4.5s4,1,4,4.5s-0.2,4.5-4,4.5S179.4,62.3,179.4,58.8z M185.1,58.8   c0-2.4,0-2.6-1.7-2.6s-1.7,0.3-1.7,2.6s0,2.7,1.7,2.7S185.1,61.2,185.1,58.8L185.1,58.8z"></path>
	<path class="st1" d="M190.2,59.9v-5.4h2.3v4.6c0,2.1,0.1,2.3,1.5,2.3s1.6-0.7,1.6-2.4v-4.5h2.3v8.7h-2.1l-0.1-1.1h-0.1   c-0.6,0.9-1.6,1.4-2.6,1.2C190.6,63.3,190.2,62.1,190.2,59.9z"></path>
	<path class="st1" d="M201.1,54.5h2.1l0.1,1.1h0.1c0.5-0.9,1.5-1.4,2.6-1.2c2.1,0,3,1,3,4.5s-0.8,4.5-2.9,4.5c-1,0.1-2-0.3-2.5-1.1   h-0.1v4.3h-2.3V54.5z M206.7,58.8c0-2.3-0.2-2.5-1.7-2.5c-0.8,0-1.2,0.2-1.4,0.7c-0.2,0.6-0.3,1.2-0.2,1.9c0,0.6,0,1.3,0.2,1.9   c0.2,0.5,0.6,0.7,1.4,0.7C206.4,61.3,206.6,61.1,206.7,58.8L206.7,58.8z"></path>
	<path class="st1" d="M43.2,25.3H30.5v16.3c0,4.9-4,8.9-8.9,8.9c-4.9,0-8.9-4-8.9-8.9H0c-0.1,11.9,9.5,21.6,21.4,21.7   s21.6-9.5,21.7-21.4V25.3z"></path>
	<rect x="43.2" y="12.7" class="st2" width="12.6" height="12.6"></rect>
	<rect x="30.5" y="0.1" class="st1" width="12.6" height="12.6"></rect>
	<path class="st1" d="M67.6,31c0-5.7,1.7-7.7,7.7-7.7c1.3,0,5.6,0.1,8.5,0.2v-1.2c0-5.1-1-5.4-7.2-5.4c-2.1,0-5.9,0.2-7.4,0.4v-4.1   c3.1-0.5,6.2-0.8,9.3-0.7c9.3,0,10.5,2.8,10.5,9.9v15.5h-4.8L84,34.6h-0.3c-1.6,3.2-5.4,3.6-8.4,3.6C70.2,38.2,67.6,36.5,67.6,31z    M82.9,32.1c0.7-1.4,1-2.9,0.9-4.5v-0.9h-7.2c-3.3,0-4,0.5-4,3.7c0,3,0.7,3.6,5,3.6C80.1,34,82,33.6,82.9,32.1L82.9,32.1z"></path>
	<path class="st1" d="M98.8,17.2h-5v-4.4h5V5.6h5.2v7.3h5.8v4.4H104v20.6h-5.2V17.2z"></path>
	<path class="st1" d="M115,1.4h5.2v36.4H115V1.4z"></path>
	<path class="st1" d="M126.6,31c0-5.7,1.7-7.7,7.7-7.7c1.3,0,5.6,0.1,8.5,0.2v-1.2c0-5.1-1-5.4-7.1-5.4c-2.2,0-5.9,0.2-7.4,0.4v-4.1   c3.1-0.5,6.2-0.8,9.3-0.7c9.3,0,10.5,2.8,10.5,9.9v15.5h-4.8l-0.2-3.2h-0.3c-1.6,3.2-5.4,3.6-8.4,3.6   C129.2,38.2,126.6,36.5,126.6,31z M141.9,32.1c0.7-1.4,1-2.9,0.9-4.5v-0.9h-7.1c-3.3,0-4,0.5-4,3.7c0,3,0.7,3.6,5,3.6   C139.2,34,141.1,33.6,141.9,32.1L141.9,32.1z"></path>
	<path class="st1" d="M155.2,37.5v-4.1c2.2,0.2,5.8,0.4,8.7,0.4c4.7,0,5.1-0.8,5.1-3.1c0-2.6-0.4-2.7-2.9-3L160,27   c-4.6-0.5-5.6-2.8-5.6-7.1c0-6.7,4-7.4,9.9-7.4c2.7,0,5.5,0.3,8.2,0.7v4.1c-2.6-0.3-5.2-0.5-7.8-0.5c-3.7,0-5.3,0.2-5.3,3   c0,2.3,0.4,2.6,2.6,2.8l6.6,0.8c3.6,0.4,5.2,1.4,5.2,7.2c0,6.6-3.4,7.6-9.4,7.6C161.4,38.2,158.3,37.9,155.2,37.5z"></path>
</g>
</svg>
