<?xml version="1.0" encoding="utf-8"?>
<!-- Generator: Adobe Illustrator 25.2.0, SVG Export Plug-In . SVG Version: 6.00 Build 0)  -->
<svg version="1.1" id="Ebene_1" xmlns="http://www.w3.org/2000/svg" xmlns:xlink="http://www.w3.org/1999/xlink" x="0px" y="0px"
	 viewBox="0 0 372.2 66.5" style="enable-background:new 0 0 372.2 66.5;" xml:space="preserve">
<style type="text/css">
	.st0{fill:none;}
	.st1{fill:#3C3C3B;}
	.st2{fill:#41AF64;}
</style>
<g id="Space">
	<path class="st0" d="M-12.6-37.7h-12.6v16.3c0,4.9-4,8.9-8.9,8.9l0,0c-4.9,0-8.9-4-8.9-8.9h-12.7C-55.9-9.5-46.3,0.3-34.4,0.3
		c0,0,0,0,0,0c11.9,0.1,21.7-9.5,21.7-21.4c0,0,0,0,0,0L-12.6-37.7z"/>
	<rect x="-12.6" y="-50.3" class="st0" width="12.6" height="12.6"/>
	<rect x="-25.2" y="-62.9" class="st0" width="12.6" height="12.6"/>
	<path class="st0" d="M-12.6,88.5h-12.6v16.3c0,4.9-4,8.9-8.9,8.9h0c-4.9,0-8.9-4-8.9-8.9l0,0h-12.7c-0.1,11.9,9.5,21.6,21.4,21.7
		c0,0,0,0,0,0c11.9,0.1,21.6-9.5,21.7-21.4L-12.6,88.5z"/>
	<rect x="-12.6" y="75.9" class="st0" width="12.6" height="12.6"/>
	<rect x="-25.2" y="63.3" class="st0" width="12.6" height="12.6"/>
	<path class="st0" d="M415.4-37.7h-12.6v16.3c0,4.9-4,8.9-8.9,8.9l0,0c-4.9,0-8.9-4-8.9-8.9c0,0,0,0,0,0h-12.7
		c-0.1,11.9,9.5,21.7,21.4,21.7c0,0,0,0,0,0c11.9,0.1,21.7-9.5,21.7-21.4c0,0,0,0,0,0L415.4-37.7z"/>
	<rect x="415.4" y="-50.3" class="st0" width="12.6" height="12.6"/>
	<rect x="402.8" y="-62.9" class="st0" width="12.6" height="12.6"/>
	<path class="st0" d="M415.4,88.6h-12.6v16.3c0,4.9-4,8.9-8.9,8.9s-8.9-4-8.9-8.9l0,0h-12.7c-0.1,11.9,9.5,21.6,21.4,21.7
		c11.9,0.1,21.6-9.5,21.7-21.4L415.4,88.6z"/>
	<rect x="415.4" y="75.9" class="st0" width="12.6" height="12.6"/>
	<rect x="402.8" y="63.3" class="st0" width="12.6" height="12.6"/>
</g>
<g id="lebbing">
	<g id="Ebene_3">
		<path class="st1" d="M78.3,34.1c-1,0-2.1,0-3.1-0.2c-0.5-0.1-0.9-0.4-1.2-0.8c-0.2-0.5-0.3-1.1-0.3-1.7V0h-5.3v30.2
			c-0.1,1.9,0.2,3.7,0.8,5.4c0.5,1.1,1.5,2,2.8,2.2c2,0.4,4.1,0.6,6.2,0.5L78.3,34.1z"/>
		<path class="st1" d="M105.7,27.2H89.1c-0.1,1.4,0.1,2.9,0.4,4.3c0.3,0.9,1.1,1.6,2,1.8c1.7,0.4,3.5,0.6,5.3,0.5
			c2.6,0,5.2-0.2,7.8-0.5v4.4c-1.4,0.3-2.8,0.5-4.2,0.5c-1.7,0.1-3.3,0.2-4.9,0.2c-3.5,0-6.1-0.4-7.8-1.2c-1.6-0.7-2.8-2.2-3.2-3.8
			c-0.6-2.6-0.8-5.3-0.7-7.9c-0.1-2.6,0.2-5.2,0.7-7.7c0.5-1.7,1.6-3.2,3.2-4c1.6-0.9,4.1-1.3,7.5-1.3s5.6,0.4,7.1,1.3
			c1.4,0.8,2.5,2.2,2.8,3.9c0.4,2.6,0.6,5.2,0.6,7.9V27.2z M91.2,17.4c-0.8,0.3-1.4,1-1.6,1.8c-0.3,1.4-0.5,2.8-0.4,4.2h11.5v-0.1
			c0.1-1.4-0.1-2.8-0.5-4.2c-0.3-0.8-0.8-1.5-1.6-1.8c-1.1-0.3-2.3-0.5-3.4-0.4C93.8,16.8,92.4,17,91.2,17.4L91.2,17.4z"/>
		<path class="st1" d="M120.5,37.6c-1.4-0.5-2.5-1.6-3.1-2.9h-0.3l-0.2,3.3h-4.8V0h5.2v15.6h0.3c0.7-1.2,1.7-2.1,3-2.6
			c1.6-0.5,3.2-0.8,4.9-0.7c1.8-0.1,3.7,0.3,5.3,1.2c1.4,0.9,2.3,2.4,2.7,4c0.6,2.6,0.9,5.3,0.8,7.9c0.1,2.7-0.2,5.3-0.8,7.9
			c-0.4,1.6-1.4,3.1-2.8,4c-1.7,0.9-3.5,1.3-5.4,1.2C123.7,38.4,122,38.1,120.5,37.6z M127.1,32.9c0.8-0.4,1.4-1.2,1.6-2.1
			c0.3-1.8,0.5-3.6,0.4-5.4c0.1-1.8-0.1-3.6-0.4-5.4c-0.1-0.9-0.7-1.7-1.6-2.2c-1.3-0.4-2.6-0.6-3.9-0.5c-1.1,0-2.1,0.1-3.1,0.4
			c-0.7,0.2-1.3,0.7-1.7,1.4c-0.4,0.7-0.7,1.5-0.8,2.4c-0.2,1.3-0.2,2.6-0.2,3.9c0,1.3,0.1,2.6,0.2,3.9c0.1,0.9,0.4,1.7,0.8,2.4
			c0.7,1.1,2.3,1.7,4.9,1.7C124.5,33.5,125.8,33.3,127.1,32.9z"/>
		<path class="st1" d="M149.2,37.6c-1.4-0.5-2.5-1.6-3.1-2.9h-0.4l-0.1,3.3h-4.9V0h5.3v15.6h0.3c0.7-1.2,1.7-2.1,3-2.6
			c1.6-0.5,3.2-0.8,4.9-0.7c1.8-0.1,3.7,0.3,5.3,1.2c1.4,0.9,2.3,2.4,2.7,4c0.6,2.6,0.9,5.3,0.8,7.9c0.1,2.7-0.2,5.3-0.8,7.9
			c-0.4,1.6-1.4,3.1-2.8,4c-1.7,0.9-3.5,1.3-5.4,1.2C152.3,38.4,150.7,38.1,149.2,37.6z M155.8,32.9c0.8-0.4,1.4-1.2,1.6-2.1
			c0.3-1.8,0.5-3.6,0.4-5.4c0.1-1.8-0.1-3.6-0.4-5.4c-0.2-0.9-0.7-1.7-1.6-2.1c-1.3-0.4-2.6-0.6-3.9-0.5c-1.1,0-2.1,0.1-3.1,0.4
			c-0.7,0.2-1.3,0.7-1.7,1.4c-0.4,0.7-0.7,1.5-0.8,2.4c-0.2,1.3-0.2,2.6-0.2,3.9c0,1.3,0.1,2.6,0.2,3.9c0.1,0.9,0.4,1.7,0.8,2.4
			c0.7,1.2,2.3,1.7,4.9,1.7C153.2,33.5,154.5,33.3,155.8,32.9z"/>
		<path class="st1" d="M169.3,5.4V0h5.5v5.4H169.3z M169.4,37.9V12.6h5.3v25.3L169.4,37.9z"/>
		<path class="st1" d="M199.3,24.3c0.1-1.6-0.1-3.2-0.4-4.8c-0.1-0.8-0.6-1.5-1.4-1.8c-1.2-0.3-2.4-0.5-3.6-0.4
			c-1.3-0.1-2.7,0.2-3.8,0.8c-0.8,0.5-1.4,1.4-1.6,2.4c-0.3,1.5-0.4,3-0.3,4.5v13h-5.3V12.6h4.9l0.1,3.3h0.4
			c0.6-1.2,1.6-2.2,2.8-2.8c1.7-0.7,3.4-1,5.2-0.9c1.8-0.1,3.6,0.3,5.3,1.1c1.2,0.7,2,1.8,2.4,3.2c0.5,1.8,0.7,3.7,0.6,5.6v15.7
			h-5.3V24.3z"/>
		<path class="st1" d="M216.5,48c-1.6-0.1-2.9-0.2-3.9-0.3v-4.4c2.8,0.1,5.3,0.2,7.5,0.2c1.8,0.1,3.5-0.1,5.3-0.6c1-0.3,1.7-1,2.1-2
			c0.4-1.6,0.5-3.2,0.5-4.8v-1.3h-0.2c-0.6,1.2-1.6,2.1-2.9,2.6c-1.6,0.5-3.2,0.8-4.8,0.7c-1.9,0.1-3.7-0.3-5.4-1.1
			c-1.4-0.9-2.4-2.3-2.8-3.9c-0.6-2.5-0.9-5.2-0.8-7.8c-0.1-2.7,0.2-5.3,0.8-7.9c0.4-1.6,1.4-3.1,2.8-4c1.7-0.9,3.5-1.3,5.4-1.2
			c1.6,0,3.3,0.2,4.8,0.8c1.4,0.5,2.5,1.6,3.1,2.9h0.3l0.2-3.3h4.8v22.3c0.1,2.7-0.2,5.4-0.8,8c-0.5,1.7-1.7,3.2-3.3,4
			c-1.7,0.9-4.3,1.3-7.8,1.3C219.8,48.2,218.2,48.1,216.5,48z M225.3,32.7c0.7-0.3,1.4-0.8,1.8-1.4c0.4-0.7,0.6-1.5,0.7-2.3
			c0.1-1.3,0.2-2.6,0.1-3.8c0-1.3,0-2.6-0.1-3.9c-0.1-0.8-0.3-1.6-0.7-2.3c-0.4-0.7-1-1.2-1.8-1.5c-1-0.3-2.1-0.5-3.2-0.5
			c-1.3-0.1-2.7,0.1-3.9,0.5c-0.8,0.4-1.4,1.2-1.6,2.1c-0.3,1.8-0.5,3.6-0.4,5.4c-0.1,1.8,0.1,3.6,0.4,5.4c0.1,0.9,0.7,1.7,1.6,2.1
			c1.3,0.4,2.6,0.6,3.9,0.5C223.2,33.3,224.3,33.1,225.3,32.7z"/>
		<path class="st1" d="M43.2,25.2H30.5v16.3c0,4.9-4,8.9-8.9,8.9s-8.9-4-8.9-8.9H0c-0.1,11.9,9.5,21.6,21.4,21.7s21.6-9.5,21.7-21.4
			V25.2z"/>
		<rect x="43.2" y="12.6" class="st2" width="12.6" height="12.6"/>
		<rect x="30.5" y="0" class="st1" width="12.6" height="12.6"/>
	</g>
	<path class="st1" d="M66.1,61.2c2.4,0,2.4-0.2,2.4-2.5v-7.3h2.4V58c0,4.9-0.2,5.1-4.8,5.1V61.2z"/>
	<path class="st1" d="M74,60.6c0-2,0.6-2.7,2.7-2.7l2.7,0.1v-0.3c0-1.5-0.3-1.6-2.3-1.6c-0.8,0-2,0.1-2.6,0.2v-1.7
		c1.1-0.2,2.2-0.2,3.3-0.3c3.4,0,3.8,1.1,3.8,3.5v5.3h-2.1L79.4,62h-0.1c-0.6,0.9-1.7,1.3-2.7,1.2C74.9,63.2,74,62.5,74,60.6z
		 M79.1,60.9c0.2-0.4,0.3-0.9,0.3-1.3v-0.2h-2c-1,0-1.2,0.1-1.2,1.1s0.2,1,1.5,1C78.3,61.5,78.8,61.3,79.1,60.9L79.1,60.9z"/>
	<path class="st1" d="M85.4,66.4v-1.7h2.4c2.3,0,2.5-0.3,2.5-2.3v-0.5h-0.1c-0.5,0.8-1.5,1.3-2.5,1.1c-2.2,0-3-1-3-4.4
		s0.8-4.5,3-4.5c1-0.1,2,0.4,2.6,1.2h0.1l0.1-1.1h2.1V62c0,3.1-0.3,4.5-4.2,4.5C87.4,66.6,86.4,66.5,85.4,66.4z M90,60.6
		c0.2-0.6,0.3-1.3,0.3-1.9c0.1-0.6,0-1.3-0.2-1.9c-0.2-0.4-0.6-0.6-1.4-0.6c-1.5,0-1.7,0.2-1.7,2.5s0.2,2.5,1.7,2.5
		C89.4,61.2,89.8,61,90,60.6L90,60.6z"/>
	<path class="st1" d="M103.3,59.4h-5.4c0,1.7,0.1,2,2.4,2c0.7,0,1.8-0.1,2.6-0.2v1.6c-1,0.2-2.1,0.3-3.2,0.3c-3.8,0-4.2-1.2-4.2-4.5
		s0.3-4.5,4-4.5s3.7,1.4,3.7,4.5L103.3,59.4z M97.9,58h3.3c0-1.8-0.3-2-1.6-2C98.1,56,98,56.4,97.9,58z"/>
	<path class="st1" d="M106.5,54.4h2.1l0.1,1.1h0.1c0.6-0.9,1.6-1.4,2.6-1.2c2.4,0,2.7,1.2,2.7,3.4v5.4h-2.3v-4.6
		c0-2.1-0.1-2.3-1.5-2.3s-1.7,0.7-1.7,2.4v4.5h-2.3V54.4z"/>
	<path class="st1" d="M119.8,62h-0.1l-0.1,1.1h-2.1V50.4h2.3v4.9h0.1c0.6-0.8,1.6-1.2,2.6-1.1c2.1,0,2.9,1,2.9,4.5s-0.8,4.5-3,4.5
		C121.4,63.3,120.4,62.9,119.8,62z M123.1,58.7c0-2.3-0.2-2.5-1.7-2.5c-0.7,0-1.1,0.2-1.3,0.5c-0.3,0.6-0.4,1.3-0.3,2
		c-0.1,0.7,0,1.4,0.3,2c0.2,0.4,0.6,0.5,1.3,0.5C122.9,61.3,123.1,61.1,123.1,58.7L123.1,58.7z"/>
	<path class="st1" d="M135.8,59.4h-5.4c0,1.7,0.1,2,2.4,2c0.7,0,1.8-0.1,2.6-0.2v1.6c-1,0.2-2.1,0.3-3.2,0.3c-3.8,0-4.2-1.2-4.2-4.5
		s0.4-4.5,4-4.5s3.7,1.4,3.7,4.5L135.8,59.4z M130.4,58h3.3c0-1.8-0.3-2-1.6-2C130.6,56,130.5,56.4,130.4,58z"/>
	<path class="st1" d="M139,54.4h2.1l0.1,1.5h0.1c0.5-1.3,1.4-1.6,2.8-1.6v2.2c-2.2,0-2.8,0.8-2.8,3.2v3.5H139V54.4z"/>
	<path class="st1" d="M146.9,66.4v-1.7h2.4c2.3,0,2.5-0.3,2.5-2.3v-0.5h-0.1c-0.5,0.8-1.5,1.3-2.5,1.1c-2.2,0-3-1-3-4.4
		s0.8-4.5,3-4.5c1-0.1,2,0.4,2.6,1.2h0.1l0.1-1.1h2.1V62c0,3.1-0.3,4.5-4.2,4.5C148.9,66.6,147.9,66.5,146.9,66.4z M151.6,60.6
		c0.2-0.6,0.3-1.3,0.3-1.9c0.1-0.6,0-1.3-0.2-1.9c-0.2-0.4-0.6-0.6-1.4-0.6c-1.5,0-1.7,0.2-1.7,2.5s0.2,2.5,1.7,2.5
		C151,61.2,151.4,61,151.6,60.6z"/>
	<path class="st1" d="M162.6,57.2c0-4.7,0.9-6,5.1-6c1.3,0,2.6,0.1,3.9,0.4v1.9c-1-0.1-2-0.2-2.9-0.3c-3.2,0-3.6,0.1-3.6,4
		c0,3.5,0.3,4,2.8,4c0.5,0,1,0,1.5-0.1v-2.8h-1.9v-1.9h4.2v6.4c-1.3,0.2-2.6,0.4-3.9,0.4C163.5,63.2,162.6,62.1,162.6,57.2z"/>
	<path class="st1" d="M175.1,54.4h2.1l0.1,1.5h0.1c0.5-1.3,1.4-1.6,2.8-1.6v2.2c-2.2,0-2.8,0.8-2.8,3.2v3.5h-2.3L175.1,54.4z"/>
	<path class="st1" d="M182.5,58.7c0-3.5,0.2-4.5,4-4.5s4,1,4,4.5s-0.2,4.5-4,4.5S182.5,62.2,182.5,58.7z M188.2,58.7
		c0-2.4,0-2.6-1.7-2.6s-1.7,0.3-1.7,2.6s0,2.7,1.7,2.7S188.2,61.1,188.2,58.7z"/>
	<path class="st1" d="M193.5,59.8v-5.4h2.3V59c0,2.1,0.1,2.3,1.5,2.3s1.6-0.7,1.6-2.4v-4.5h2.3v8.7h-2.1L199,62h-0.1
		c-0.6,0.9-1.6,1.4-2.6,1.2C193.9,63.2,193.5,62,193.5,59.8z"/>
	<path class="st1" d="M204.6,54.4h2.1l0.1,1.1h0.1c0.5-0.9,1.5-1.4,2.6-1.2c2.1,0,3,1,3,4.5s-0.8,4.5-2.9,4.5c-1,0.2-2-0.3-2.6-1.1
		h-0.1v4.3h-2.3V54.4z M210.2,58.7c0-2.3-0.2-2.5-1.7-2.5c-0.8,0-1.2,0.2-1.4,0.7c-0.2,0.6-0.3,1.2-0.2,1.9c0,0.6,0,1.3,0.2,1.9
		c0.2,0.5,0.6,0.7,1.4,0.7C210,61.3,210.2,61,210.2,58.7L210.2,58.7z"/>
</g>
</svg>
