<?xml version="1.0" encoding="utf-8"?>
<!-- Generator: Adobe Illustrator 25.2.0, SVG Export Plug-In . SVG Version: 6.00 Build 0)  -->
<svg version="1.1" id="Ebene_1" xmlns="http://www.w3.org/2000/svg" xmlns:xlink="http://www.w3.org/1999/xlink" x="0px" y="0px"
	 viewBox="0 0 372.2 66.6" style="enable-background:new 0 0 372.2 66.6;" xml:space="preserve">
<style type="text/css">
	.st0{fill:none;}
	.st1{fill:#3C3C3B;}
	.st2{fill:#4372B7;}
</style>
<g id="Space">
	<path class="st0" d="M-12.6-37.8h-12.6v16.3c0,4.9-4,8.9-8.9,8.9l0,0c-4.9,0-8.9-4-8.9-8.9h-12.7C-55.9-9.6-46.3,0.1-34.4,0.2
		c0,0,0,0,0,0c11.9,0.1,21.7-9.5,21.7-21.4c0,0,0,0,0,0L-12.6-37.8z"/>
	<rect x="-12.6" y="-50.5" class="st0" width="12.6" height="12.6"/>
	<rect x="-25.2" y="-63.1" class="st0" width="12.6" height="12.6"/>
	<path class="st0" d="M-12.6,88.4h-12.6v16.3c0,4.9-4,8.9-8.9,8.9h0c-4.9,0-8.9-4-8.9-8.9l0,0h-12.7c-0.1,11.9,9.5,21.6,21.4,21.7
		c0,0,0,0,0,0c11.9,0.1,21.6-9.5,21.7-21.4L-12.6,88.4z"/>
	<rect x="-12.6" y="75.8" class="st0" width="12.6" height="12.6"/>
	<rect x="-25.2" y="63.1" class="st0" width="12.6" height="12.6"/>
	<path class="st0" d="M415.4-37.8h-12.6v16.3c0,4.9-4,8.9-8.9,8.9l0,0c-4.9,0-8.9-4-8.9-8.9c0,0,0,0,0,0h-12.7
		c-0.1,11.9,9.5,21.7,21.4,21.7c0,0,0,0,0,0c11.9,0.1,21.7-9.5,21.7-21.4c0,0,0,0,0,0L415.4-37.8z"/>
	<rect x="415.4" y="-50.5" class="st0" width="12.6" height="12.6"/>
	<rect x="402.8" y="-63.1" class="st0" width="12.6" height="12.6"/>
	<path class="st0" d="M415.4,88.4h-12.6v16.3c0,4.9-4,8.9-8.9,8.9s-8.9-4-8.9-8.9l0,0h-12.7c-0.1,11.9,9.5,21.6,21.4,21.7
		c11.9,0.1,21.6-9.5,21.7-21.4L415.4,88.4z"/>
	<rect x="415.4" y="75.8" class="st0" width="12.6" height="12.6"/>
	<rect x="402.8" y="63.2" class="st0" width="12.6" height="12.6"/>
</g>
<g id="kampf">
	<path class="st1" d="M66.1,61.2c2.4,0,2.4-0.2,2.4-2.5v-7.3h2.4V58c0,4.9-0.2,5.1-4.8,5.1V61.2z"/>
	<path class="st1" d="M73.7,60.6c0-2,0.6-2.7,2.7-2.7c0.4,0,1.8,0,2.7,0.1v-0.3c0-1.5-0.3-1.6-2.3-1.6c-0.8,0-2,0.1-2.6,0.2v-1.7
		c1.1-0.2,2.2-0.3,3.3-0.3c3.4,0,3.8,1.1,3.8,3.5v5.3h-2.1L79.1,62h-0.1c-0.6,0.9-1.7,1.3-2.7,1.2C74.6,63.2,73.7,62.5,73.7,60.6z
		 M78.8,60.9c0.2-0.4,0.3-0.9,0.2-1.3v-0.2h-2c-1,0-1.2,0.1-1.2,1.1s0.2,1,1.5,1C77.9,61.5,78.5,61.3,78.8,60.9L78.8,60.9z"/>
	<path class="st1" d="M84.8,66.4v-1.7h2.4c2.3,0,2.5-0.3,2.5-2.3v-0.5h-0.1c-0.6,0.8-1.5,1.2-2.5,1.1c-2.2,0-3-1-3-4.4
		s0.8-4.5,3-4.5c1-0.1,2,0.4,2.6,1.2h0.1l0.1-1.1h2.1V62c0,3.1-0.3,4.5-4.2,4.5C86.8,66.6,85.8,66.5,84.8,66.4z M89.5,60.6
		c0.2-0.6,0.3-1.3,0.3-1.9c0.1-0.6,0-1.3-0.2-1.9c-0.2-0.4-0.6-0.6-1.4-0.6c-1.5,0-1.7,0.2-1.7,2.5s0.2,2.5,1.7,2.5
		C88.9,61.2,89.3,61,89.5,60.6z"/>
	<path class="st1" d="M102.5,59.4h-5.4c0,1.7,0.1,2,2.4,2c0.7,0,1.8-0.1,2.6-0.2v1.6c-1,0.2-2.1,0.3-3.2,0.3c-3.8,0-4.2-1.2-4.2-4.5
		s0.4-4.5,4-4.5s3.7,1.4,3.7,4.5L102.5,59.4z M97.1,58h3.3c0-1.8-0.3-2-1.6-2C97.3,56,97.2,56.4,97.1,58z"/>
	<path class="st1" d="M105.4,54.4h2.1l0.1,1.1h0.1c0.6-0.9,1.6-1.4,2.6-1.2c2.4,0,2.7,1.2,2.7,3.4v5.4h-2.3v-4.6
		c0-2.1-0.1-2.3-1.5-2.3s-1.7,0.7-1.7,2.4v4.5h-2.3V54.4z"/>
	<path class="st1" d="M118.5,62h-0.1l-0.1,1.1h-2.1V50.4h2.3v4.9h0.1c0.6-0.8,1.6-1.2,2.6-1.1c2.1,0,2.9,1,2.9,4.5s-0.8,4.5-3,4.5
		C120.1,63.3,119.1,62.9,118.5,62z M121.8,58.8c0-2.3-0.2-2.5-1.7-2.5c-0.7,0-1.1,0.2-1.3,0.5c-0.3,0.6-0.4,1.3-0.3,2
		c-0.1,0.7,0,1.4,0.3,2c0.2,0.4,0.6,0.5,1.3,0.5C121.6,61.3,121.8,61,121.8,58.8L121.8,58.8z"/>
	<path class="st1" d="M134.3,59.4h-5.4c0,1.7,0.1,2,2.4,2c0.7,0,1.8-0.1,2.6-0.2v1.6c-1,0.2-2.1,0.3-3.2,0.3c-3.8,0-4.2-1.2-4.2-4.5
		s0.4-4.5,4-4.5s3.7,1.4,3.7,4.5L134.3,59.4z M128.9,58h3.3c0-1.8-0.3-2-1.6-2C129.1,56,128.9,56.4,128.9,58z"/>
	<path class="st1" d="M137.1,54.4h2.1l0.1,1.5h0.1c0.5-1.3,1.4-1.6,2.8-1.6v2.2c-2.2,0-2.8,0.8-2.8,3.2v3.5h-2.3L137.1,54.4z"/>
	<path class="st1" d="M144.9,66.4v-1.7h2.4c2.3,0,2.5-0.3,2.5-2.3v-0.5h-0.1c-0.6,0.8-1.5,1.2-2.5,1.1c-2.2,0-3-1-3-4.4
		s0.8-4.5,3-4.5c1-0.1,2,0.4,2.6,1.2h0.1l0.1-1.1h2.1V62c0,3.1-0.3,4.5-4.2,4.5C146.8,66.6,145.8,66.5,144.9,66.4z M149.5,60.6
		c0.2-0.6,0.3-1.3,0.3-1.9c0.1-0.6,0-1.3-0.2-1.9c-0.2-0.4-0.6-0.6-1.4-0.6c-1.5,0-1.7,0.2-1.7,2.5s0.2,2.5,1.7,2.5
		C148.9,61.2,149.3,61,149.5,60.6L149.5,60.6z"/>
	<path class="st1" d="M160.1,57.2c0-4.7,0.9-6,5.1-6c1.3,0,2.6,0.1,3.9,0.4v1.9c-1-0.1-1.9-0.2-2.9-0.3c-3.2,0-3.6,0.1-3.6,4
		c0,3.5,0.3,4,2.8,4c0.5,0,1,0,1.5-0.1v-2.8h-1.9v-1.9h4.2v6.4c-1.3,0.2-2.6,0.4-3.9,0.4C160.9,63.2,160.1,62.1,160.1,57.2z"/>
	<path class="st1" d="M172.3,54.4h2.1l0.1,1.5h0.1c0.5-1.3,1.4-1.6,2.8-1.6v2.2c-2.2,0-2.8,0.8-2.8,3.2v3.5h-2.3L172.3,54.4z"/>
	<path class="st1" d="M179.4,58.7c0-3.5,0.2-4.5,4-4.5s4,1,4,4.5s-0.2,4.5-4,4.5S179.4,62.2,179.4,58.7z M185.1,58.7
		c0-2.4,0-2.6-1.7-2.6s-1.7,0.3-1.7,2.6s0,2.7,1.7,2.7S185.1,61.1,185.1,58.7L185.1,58.7z"/>
	<path class="st1" d="M190.2,59.8v-5.4h2.3V59c0,2.1,0.1,2.3,1.5,2.3s1.6-0.7,1.6-2.4v-4.5h2.3v8.7h-2.1l-0.1-1.1h-0.1
		c-0.6,0.9-1.6,1.4-2.6,1.2C190.6,63.2,190.2,62,190.2,59.8z"/>
	<path class="st1" d="M201.1,54.4h2.1l0.1,1.1h0.1c0.5-0.9,1.5-1.4,2.6-1.2c2.1,0,3,1,3,4.5s-0.8,4.5-2.9,4.5c-1,0.1-2-0.3-2.5-1.1
		h-0.1v4.3h-2.3L201.1,54.4z M206.6,58.7c0-2.3-0.2-2.5-1.7-2.5c-0.8,0-1.2,0.2-1.4,0.7c-0.2,0.6-0.3,1.2-0.2,1.9
		c0,0.6,0,1.3,0.2,1.9c0.2,0.5,0.6,0.7,1.4,0.7C206.4,61.3,206.6,61,206.6,58.7L206.6,58.7z"/>
	<path class="st1" d="M84.4,38l-8-10.4h-2.7V38h-5.3V0h5.3v22.9h2.7l8.1-10.3h5.8l-9.7,12.3L90.5,38H84.4z"/>
	<path class="st1" d="M95.6,36.8c-1.3-1.1-1.9-3-1.9-5.8c-0.1-1.6,0.2-3.2,0.7-4.7c0.5-1.1,1.3-2,2.4-2.4c1.5-0.6,3.2-0.8,4.8-0.8
		c1.9,0,4.8,0.1,8.6,0.2v-1.1c0.1-1.2-0.1-2.5-0.5-3.6c-0.4-0.7-1.1-1.2-1.9-1.4c-1.6-0.2-3.2-0.3-4.8-0.3c-1.3,0-2.7,0-4,0.1
		c-1.2,0.1-2.4,0.2-3.5,0.4V13c3.1-0.5,6.3-0.8,9.4-0.8c2.4-0.1,4.8,0.2,7,1c1.4,0.6,2.5,1.7,3,3.1c0.6,1.9,0.8,4,0.7,6V38h-4.8
		l-0.2-3.2h-0.3c-0.7,1.4-1.9,2.4-3.4,2.9c-1.7,0.5-3.4,0.8-5.1,0.7C98.9,38.4,96.9,37.9,95.6,36.8z M107.3,33.5
		c0.8-0.2,1.5-0.8,1.9-1.5c0.7-1.4,1-2.9,0.9-4.4v-0.8h-7.3c-0.9,0-1.7,0.1-2.6,0.2c-0.5,0.1-0.9,0.5-1.1,1
		c-0.3,0.7-0.4,1.5-0.3,2.3c-0.1,0.8,0.1,1.6,0.4,2.3c0.3,0.5,0.8,0.9,1.4,1c1.1,0.2,2.2,0.3,3.3,0.2
		C105.1,34,106.2,33.8,107.3,33.5z"/>
	<path class="st1" d="M153.3,24.4c0-1.6-0.1-3.3-0.3-4.9c-0.1-0.8-0.5-1.5-1.2-1.8c-1-0.3-2.1-0.5-3.2-0.4c-1.2-0.1-2.4,0.2-3.4,0.8
		c-0.8,0.6-1.3,1.4-1.4,2.3c-0.3,1.5-0.4,3-0.3,4.5V38h-5.3V24.4c0-1.6-0.1-3.3-0.3-4.9c-0.1-0.8-0.5-1.5-1.2-1.8
		c-1-0.3-2.1-0.5-3.2-0.4c-1.2-0.1-2.4,0.2-3.5,0.8c-0.8,0.6-1.3,1.4-1.4,2.3c-0.3,1.5-0.4,3-0.3,4.5V38h-5.3V12.7h4.9l0.2,3.3h0.3
		c0.5-1.2,1.5-2.2,2.7-2.8c1.5-0.7,3.2-1,4.9-0.9c1.6-0.1,3.3,0.2,4.8,0.9c1.1,0.6,1.9,1.7,2.3,2.9h0.4c1.2-2.5,3.8-3.7,7.8-3.7
		c1.7-0.1,3.4,0.3,4.8,1.1c1.1,0.7,1.9,1.9,2.3,3.2c0.4,1.9,0.7,3.8,0.6,5.7V38h-5.3L153.3,24.4z"/>
	<path class="st1" d="M166.1,12.7h4.9l0.1,3.3h0.4c0.6-1.3,1.7-2.4,3.1-2.9c1.5-0.6,3.2-0.8,4.8-0.8c1.9-0.1,3.8,0.3,5.4,1.2
		c1.4,0.9,2.4,2.4,2.8,4c0.6,2.6,0.9,5.2,0.8,7.9c0.1,2.7-0.2,5.3-0.8,7.9c-0.4,1.6-1.3,3.1-2.7,4c-1.6,0.9-3.5,1.3-5.3,1.2
		c-1.7,0-3.3-0.2-4.9-0.7c-1.3-0.5-2.4-1.4-3-2.6h-0.4V48h-5.3L166.1,12.7z M181.2,32.9c0.8-0.4,1.4-1.2,1.6-2.1
		c0.3-1.8,0.5-3.6,0.4-5.4c0.1-1.8-0.1-3.7-0.4-5.5c-0.2-0.9-0.7-1.7-1.6-2.1c-1.3-0.4-2.6-0.6-4-0.5c-1.1,0-2.3,0.1-3.3,0.5
		c-0.8,0.3-1.4,0.9-1.8,1.6c-0.3,0.7-0.5,1.5-0.6,2.3c-0.1,1.2-0.2,2.4-0.1,3.6c0,1.2,0,2.4,0.1,3.6c0.1,0.8,0.2,1.6,0.5,2.3
		c0.4,0.8,1,1.4,1.8,1.7c1.1,0.4,2.2,0.6,3.4,0.5C178.6,33.5,179.9,33.3,181.2,32.9z"/>
	<path class="st1" d="M197.2,17.4h-5.1v-4.7h5.1v-4c0-2.8,0.3-4.7,1-5.9c0.7-1.2,1.9-2,3.3-2.3c2.4-0.4,4.9-0.5,7.4-0.5v4.2
		c-1.4,0-2.8,0-4.2,0.2c-0.7,0.1-1.3,0.4-1.7,1c-0.4,0.7-0.5,1.5-0.5,2.3v5h6.4v4.7h-6.4v20.7h-5.3L197.2,17.4z"/>
	<path class="st1" d="M43.1,25.2H30.5v16.3c0,4.9-4,8.9-8.9,8.9s-8.9-4-8.9-8.9H0c-0.1,11.9,9.5,21.6,21.4,21.7s21.6-9.5,21.7-21.4
		L43.1,25.2z"/>
	<rect x="43.1" y="12.6" class="st2" width="12.6" height="12.6"/>
	<rect x="30.5" class="st1" width="12.6" height="12.6"/>
</g>
<g id="kampf_lsf">
	<path class="st1" d="M66.1,61.2c2.4,0,2.4-0.2,2.4-2.5v-7.3h2.4V58c0,4.9-0.2,5.1-4.8,5.1V61.2z"/>
	<path class="st1" d="M73.7,60.7c0-2,0.6-2.7,2.7-2.7c0.4,0,1.8,0,2.7,0.1v-0.3c0-1.5-0.3-1.6-2.3-1.6c-0.8,0-2,0.1-2.6,0.2v-1.7
		c1.1-0.2,2.2-0.3,3.3-0.3c3.4,0,3.8,1.1,3.8,3.5v5.3h-2.1L79.1,62h-0.1c-0.6,0.9-1.7,1.3-2.7,1.2C74.6,63.2,73.7,62.6,73.7,60.7z
		 M78.8,61c0.2-0.4,0.3-0.9,0.2-1.3v-0.2h-2c-1,0-1.2,0.1-1.2,1.1s0.2,1,1.5,1C77.9,61.6,78.5,61.4,78.8,61L78.8,61z"/>
	<path class="st1" d="M84.8,66.4v-1.7h2.4c2.3,0,2.5-0.3,2.5-2.3V62h-0.1c-0.6,0.8-1.5,1.3-2.5,1.1c-2.2,0-3-1-3-4.4s0.8-4.5,3-4.5
		c1-0.1,2,0.4,2.6,1.2h0.1l0.1-1.1h2.1V62c0,3.1-0.3,4.5-4.2,4.5C86.8,66.6,85.8,66.5,84.8,66.4z M89.5,60.6
		c0.2-0.6,0.3-1.3,0.3-1.9c0.1-0.6,0-1.3-0.2-1.9c-0.2-0.4-0.6-0.6-1.4-0.6c-1.5,0-1.7,0.2-1.7,2.5s0.2,2.5,1.7,2.5
		C88.9,61.2,89.3,61,89.5,60.6z"/>
	<path class="st1" d="M102.5,59.4h-5.4c0,1.7,0.1,2,2.4,2c0.7,0,1.8-0.1,2.6-0.2v1.6c-1,0.2-2.1,0.3-3.2,0.3c-3.8,0-4.2-1.2-4.2-4.5
		s0.4-4.5,4-4.5s3.7,1.4,3.7,4.5L102.5,59.4z M97.1,58h3.3c0-1.8-0.3-2-1.6-2C97.3,56,97.2,56.4,97.1,58z"/>
	<path class="st1" d="M105.4,54.4h2.1l0.1,1.1h0.1c0.6-0.9,1.6-1.4,2.6-1.2c2.4,0,2.7,1.2,2.7,3.4v5.4h-2.3v-4.6
		c0-2.1-0.1-2.3-1.5-2.3s-1.7,0.7-1.7,2.4v4.5h-2.3V54.4z"/>
	<path class="st1" d="M118.5,62h-0.1l-0.1,1.1h-2.1V50.5h2.3v4.9h0.1c0.6-0.8,1.6-1.2,2.6-1.1c2.1,0,2.9,1,2.9,4.5s-0.8,4.5-3,4.5
		C120.1,63.4,119.1,62.9,118.5,62z M121.8,58.8c0-2.3-0.2-2.5-1.7-2.5c-0.7,0-1.1,0.2-1.3,0.5c-0.3,0.6-0.4,1.3-0.3,2
		c-0.1,0.7,0,1.4,0.3,2c0.2,0.4,0.6,0.5,1.3,0.5C121.6,61.3,121.8,61.1,121.8,58.8L121.8,58.8z"/>
	<path class="st1" d="M134.3,59.4h-5.4c0,1.7,0.1,2,2.4,2c0.7,0,1.8-0.1,2.6-0.2v1.6c-1,0.2-2.1,0.3-3.2,0.3c-3.8,0-4.2-1.2-4.2-4.5
		s0.4-4.5,4-4.5s3.7,1.4,3.7,4.5L134.3,59.4z M128.9,58h3.3c0-1.8-0.3-2-1.6-2C129.1,56,128.9,56.4,128.9,58z"/>
	<path class="st1" d="M137.1,54.4h2.1l0.1,1.5h0.1c0.5-1.3,1.4-1.6,2.8-1.6v2.2c-2.2,0-2.8,0.8-2.8,3.2v3.5h-2.3L137.1,54.4z"/>
	<path class="st1" d="M144.9,66.4v-1.7h2.4c2.3,0,2.5-0.3,2.5-2.3V62h-0.1c-0.6,0.8-1.5,1.3-2.5,1.1c-2.2,0-3-1-3-4.4s0.8-4.5,3-4.5
		c1-0.1,2,0.4,2.6,1.2h0.1l0.1-1.1h2.1V62c0,3.1-0.3,4.5-4.2,4.5C146.8,66.6,145.8,66.5,144.9,66.4z M149.5,60.6
		c0.2-0.6,0.3-1.3,0.3-1.9c0.1-0.6,0-1.3-0.2-1.9c-0.2-0.4-0.6-0.6-1.4-0.6c-1.5,0-1.7,0.2-1.7,2.5s0.2,2.5,1.7,2.5
		C148.9,61.2,149.3,61,149.5,60.6L149.5,60.6z"/>
	<path class="st1" d="M160.1,57.3c0-4.7,0.9-6,5.1-6c1.3,0,2.6,0.1,3.9,0.4v1.9c-1-0.1-1.9-0.2-2.9-0.3c-3.2,0-3.6,0.1-3.6,4
		c0,3.5,0.3,4,2.8,4c0.5,0,1,0,1.5-0.1v-2.8h-1.9v-1.9h4.2v6.4c-1.3,0.2-2.6,0.4-3.9,0.4C160.9,63.2,160.1,62.1,160.1,57.3z"/>
	<path class="st1" d="M172.3,54.4h2.1l0.1,1.5h0.1c0.5-1.3,1.4-1.6,2.8-1.6v2.2c-2.2,0-2.8,0.8-2.8,3.2v3.5h-2.3L172.3,54.4z"/>
	<path class="st1" d="M179.4,58.8c0-3.5,0.2-4.5,4-4.5s4,1,4,4.5s-0.2,4.5-4,4.5S179.4,62.3,179.4,58.8z M185.1,58.8
		c0-2.4,0-2.6-1.7-2.6s-1.7,0.3-1.7,2.6s0,2.7,1.7,2.7S185.1,61.1,185.1,58.8L185.1,58.8z"/>
	<path class="st1" d="M190.2,59.9v-5.4h2.3V59c0,2.1,0.1,2.3,1.5,2.3s1.6-0.7,1.6-2.4v-4.5h2.3v8.7h-2.1l-0.1-1.1h-0.1
		c-0.6,0.9-1.6,1.4-2.6,1.2C190.6,63.2,190.2,62,190.2,59.9z"/>
	<path class="st1" d="M201.1,54.4h2.1l0.1,1.1h0.1c0.5-0.9,1.5-1.4,2.6-1.2c2.1,0,3,1,3,4.5s-0.8,4.5-2.9,4.5c-1,0.1-2-0.3-2.5-1.1
		h-0.1v4.3h-2.3L201.1,54.4z M206.6,58.8c0-2.3-0.2-2.5-1.7-2.5c-0.8,0-1.2,0.2-1.4,0.7c-0.2,0.6-0.3,1.2-0.2,1.9
		c0,0.6,0,1.3,0.2,1.9c0.2,0.5,0.6,0.7,1.4,0.7C206.4,61.3,206.6,61.1,206.6,58.8L206.6,58.8z"/>
	<g id="Ebene_16">
		<path class="st1" d="M244.3,38c-1.8-0.1-3.3-0.3-4.6-0.5v-4.4c2.9,0.3,5.8,0.5,8.8,0.5c1.1,0,2.3-0.1,3.4-0.3
			c0.6-0.1,1.1-0.4,1.4-0.9c0.2-0.6,0.4-1.2,0.3-1.8c0-0.6,0-1.2-0.2-1.8c-0.1-0.3-0.4-0.6-0.7-0.7c-0.6-0.2-1.3-0.3-1.9-0.4
			l-6.1-0.8c-1.2-0.1-2.5-0.5-3.5-1.1c-0.8-0.6-1.4-1.4-1.7-2.4c-0.3-1.2-0.5-2.5-0.4-3.8c-0.1-1.7,0.3-3.4,1.2-4.8
			c0.8-1.1,2-1.9,3.3-2.1c1.8-0.4,3.7-0.6,5.5-0.5c1.4,0,2.8,0.1,4.4,0.2c1.3,0.1,2.6,0.3,3.9,0.6v4.4c-2.6-0.4-5.2-0.6-7.9-0.5
			c-1.1,0-2.1,0-3.2,0.2c-0.6,0.1-1.2,0.3-1.6,0.8c-0.4,0.5-0.6,1.2-0.6,1.9c0,0.5,0,1.1,0.2,1.6c0.1,0.3,0.4,0.6,0.7,0.7
			c0.6,0.2,1.2,0.3,1.8,0.3l6.7,0.9c1.1,0.1,2.1,0.4,3.1,0.8c0.8,0.4,1.4,1.2,1.7,2c0.4,1.4,0.6,2.9,0.5,4.4
			c0.1,1.7-0.3,3.4-1.1,4.9c-0.7,1.1-1.8,1.9-3.1,2.2c-1.7,0.4-3.5,0.6-5.3,0.6C247.7,38.2,246.1,38.2,244.3,38z"/>
		<path class="st1" d="M267.6,17.3h-5v-4.6h5V9.7c0-2.7,0.3-4.7,1-5.9c0.7-1.2,1.9-2,3.3-2.2c2.4-0.4,4.9-0.5,7.3-0.5v4.2
			c-1.4,0-2.8,0-4.2,0.2c-0.7,0.1-1.3,0.4-1.7,0.9c-0.4,0.7-0.5,1.5-0.5,2.3v3.8h6.4v4.6h-6.4v20.6h-5.2L267.6,17.3z"/>
		<path class="st1" d="M233.8,34c-1,0-2.1-0.1-3.1-0.2c-0.5-0.1-0.9-0.4-1.2-0.8c-0.2-0.5-0.3-1.1-0.3-1.7V0h-5.2v30.1
			c-0.1,1.9,0.2,3.7,0.8,5.4c0.6,1.1,1.6,1.9,2.8,2.2c2,0.4,4.1,0.6,6.2,0.5L233.8,34z"/>
	</g>
	<path class="st1" d="M84.4,38.1l-8-10.4h-2.7v10.4h-5.3V0h5.3v22.9h2.7l8.1-10.2h5.8l-9.7,12.2l9.9,13.1L84.4,38.1z"/>
	<path class="st1" d="M95.6,36.8c-1.3-1.1-1.9-3-1.9-5.8c-0.1-1.6,0.2-3.2,0.7-4.7c0.5-1.1,1.3-2,2.4-2.4c1.5-0.6,3.2-0.8,4.8-0.8
		c1.9,0,4.8,0.1,8.6,0.2v-1.1c0.1-1.2-0.1-2.5-0.5-3.6c-0.4-0.7-1.1-1.3-1.9-1.4c-1.6-0.2-3.2-0.4-4.8-0.3c-1.3,0-2.7,0-4,0.1
		c-1.2,0.1-2.4,0.2-3.5,0.4V13c3.1-0.5,6.3-0.8,9.4-0.8c2.4-0.1,4.8,0.2,7,1c1.4,0.6,2.5,1.7,3,3.1c0.6,1.9,0.8,4,0.7,6V38h-4.8
		l-0.2-3.2h-0.3c-0.7,1.4-1.9,2.4-3.4,2.9c-1.7,0.5-3.4,0.7-5.1,0.7C98.9,38.5,96.9,37.9,95.6,36.8z M107.3,33.5
		c0.8-0.3,1.5-0.8,1.9-1.5c0.7-1.4,1-2.9,0.9-4.4v-0.7h-7.3c-0.9,0-1.7,0.1-2.6,0.2c-0.5,0.1-0.9,0.5-1.1,1
		c-0.3,0.7-0.4,1.5-0.3,2.3c0,0.8,0.1,1.6,0.4,2.3c0.3,0.5,0.8,0.9,1.4,1c1.1,0.2,2.2,0.3,3.3,0.3C105.1,34,106.3,33.9,107.3,33.5z"
		/>
	<path class="st1" d="M153.3,24.5c0.1-1.6-0.1-3.3-0.3-4.9c-0.1-0.8-0.5-1.5-1.2-1.8c-1-0.3-2.1-0.5-3.2-0.4
		c-1.2-0.1-2.4,0.2-3.4,0.8c-0.8,0.6-1.3,1.4-1.4,2.3c-0.3,1.5-0.4,3-0.3,4.6v13.1h-5.3V24.5c0.1-1.6-0.1-3.3-0.3-4.9
		c-0.1-0.8-0.5-1.5-1.2-1.8c-1-0.3-2.1-0.5-3.2-0.4c-1.2-0.1-2.4,0.2-3.5,0.8c-0.8,0.6-1.3,1.4-1.4,2.3c-0.3,1.5-0.4,3-0.3,4.5v13.1
		h-5.3V12.7h4.9l0.2,3.3h0.3c0.5-1.2,1.5-2.2,2.7-2.8c1.5-0.7,3.2-1,4.9-0.9c1.6-0.1,3.3,0.2,4.8,0.9c1.1,0.6,1.9,1.6,2.3,2.8h0.4
		c1.2-2.5,3.8-3.7,7.8-3.7c1.7-0.1,3.4,0.3,4.8,1.1c1.1,0.7,1.9,1.9,2.3,3.2c0.4,1.9,0.7,3.8,0.6,5.7v15.8h-5.3L153.3,24.5z"/>
	<path class="st1" d="M166.1,12.7h4.9l0.1,3.3h0.4c0.6-1.3,1.7-2.4,3.1-2.9c1.5-0.6,3.2-0.8,4.8-0.8c1.9-0.1,3.8,0.3,5.4,1.2
		c1.4,0.9,2.4,2.4,2.8,4c0.6,2.6,0.9,5.2,0.8,7.9c0.1,2.7-0.2,5.3-0.8,7.9c-0.4,1.6-1.3,3.1-2.7,4c-1.6,0.9-3.5,1.3-5.3,1.2
		c-1.7,0-3.3-0.2-4.9-0.7c-1.3-0.5-2.4-1.4-3-2.6h-0.4V48h-5.3L166.1,12.7z M181.2,32.9c0.8-0.4,1.4-1.2,1.6-2.1
		c0.3-1.8,0.5-3.6,0.4-5.4c0.1-1.8-0.1-3.7-0.4-5.5c-0.2-0.9-0.7-1.7-1.6-2.1c-1.3-0.4-2.6-0.6-4-0.5c-1.1,0-2.3,0.1-3.3,0.5
		c-0.8,0.3-1.4,0.9-1.8,1.6c-0.3,0.7-0.5,1.5-0.6,2.3c-0.1,1.2-0.2,2.4-0.1,3.6c0,1.2,0,2.4,0.1,3.6c0.1,0.8,0.3,1.6,0.5,2.3
		c0.4,0.8,1,1.4,1.8,1.7c1.1,0.4,2.2,0.6,3.4,0.5C178.6,33.5,179.9,33.3,181.2,32.9z"/>
	<path class="st1" d="M197.2,17.4h-5.1v-4.7h5.1v-4c0-2.8,0.3-4.7,1-5.9c0.7-1.2,1.9-2,3.3-2.3c2.4-0.4,4.9-0.5,7.4-0.5v4.2
		c-1.4,0-2.8,0-4.2,0.2c-0.7,0.1-1.3,0.4-1.7,1c-0.4,0.7-0.5,1.5-0.5,2.3v5h6.4v4.7h-6.4v20.7h-5.3L197.2,17.4z"/>
	<path class="st1" d="M43.1,25.3H30.5v16.3c0,4.9-4,8.9-8.9,8.9s-8.9-4-8.9-8.9H0c-0.1,11.9,9.5,21.6,21.4,21.7s21.6-9.5,21.7-21.4
		L43.1,25.3z"/>
	<rect x="43.1" y="12.6" class="st2" width="12.6" height="12.6"/>
	<rect x="30.5" y="0" class="st1" width="12.6" height="12.6"/>
</g>
</svg>
