<?xml version="1.0" encoding="utf-8"?>
<!-- Generator: Adobe Illustrator 25.2.0, SVG Export Plug-In . SVG Version: 6.00 Build 0)  -->
<svg version="1.1" id="Ebene_1" xmlns="http://www.w3.org/2000/svg" xmlns:xlink="http://www.w3.org/1999/xlink" x="0px" y="0px"
	 viewBox="0 0 372.2 66.5" style="enable-background:new 0 0 372.2 66.5;" xml:space="preserve">
<style type="text/css">
	.st0{fill:none;}
	.st1{fill:#3C3C3B;}
	.st2{fill:#4372B7;}
</style>
<g id="Space">
	<path class="st0" d="M-12.6-37.9h-12.6v16.3c0,4.9-4,8.9-8.9,8.9l0,0c-4.9,0-8.9-4-8.9-8.9h-12.7C-55.9-9.7-46.3,0.1-34.4,0.2
		c0,0,0,0,0,0c11.9,0.1,21.7-9.5,21.7-21.4c0,0,0,0,0,0L-12.6-37.9z"/>
	<rect x="-12.6" y="-50.5" class="st0" width="12.6" height="12.6"/>
	<rect x="-25.2" y="-63.1" class="st0" width="12.6" height="12.6"/>
	<path class="st0" d="M-12.6,88.4h-12.6v16.3c0,4.9-4,8.9-8.9,8.9h0c-4.9,0-8.9-4-8.9-8.9l0,0h-12.7c-0.1,11.9,9.5,21.6,21.4,21.7
		c0,0,0,0,0,0c11.9,0.1,21.6-9.5,21.7-21.4L-12.6,88.4z"/>
	<rect x="-12.6" y="75.7" class="st0" width="12.6" height="12.6"/>
	<rect x="-25.2" y="63.1" class="st0" width="12.6" height="12.6"/>
	<path class="st0" d="M415.4-37.9h-12.6v16.3c0,4.9-4,8.9-8.9,8.9l0,0c-4.9,0-8.9-4-8.9-8.9c0,0,0,0,0,0h-12.7
		c-0.1,11.9,9.5,21.7,21.4,21.7c0,0,0,0,0,0c11.9,0.1,21.7-9.5,21.7-21.4c0,0,0,0,0,0L415.4-37.9z"/>
	<rect x="415.4" y="-50.5" class="st0" width="12.6" height="12.6"/>
	<rect x="402.8" y="-63.1" class="st0" width="12.6" height="12.6"/>
	<path class="st0" d="M415.4,88.4h-12.6v16.3c0,4.9-4,8.9-8.9,8.9s-8.9-4-8.9-8.9l0,0h-12.7c-0.1,11.9,9.5,21.6,21.4,21.7
		c11.9,0.1,21.6-9.5,21.7-21.4L415.4,88.4z"/>
	<rect x="415.4" y="75.8" class="st0" width="12.6" height="12.6"/>
	<rect x="402.8" y="63.1" class="st0" width="12.6" height="12.6"/>
</g>
<g id="zima">
	<path class="st1" d="M66.4,61.2c2.4,0,2.4-0.2,2.4-2.5v-7.3h2.4V58c0,4.9-0.2,5.1-4.8,5.1V61.2z"/>
	<path class="st1" d="M74.3,60.7c0-2,0.6-2.7,2.7-2.7l2.7,0.1v-0.3c0-1.5-0.3-1.6-2.3-1.6c-0.9,0-1.7,0.1-2.6,0.2v-1.7
		c1.1-0.2,2.2-0.3,3.3-0.3c3.4,0,3.8,1.1,3.8,3.5v5.3h-2.1L79.7,62h-0.1c-0.6,0.9-1.7,1.3-2.7,1.2C75.2,63.2,74.3,62.5,74.3,60.7z
		 M79.4,60.9c0.2-0.4,0.3-0.9,0.3-1.3v-0.2h-2c-1,0-1.2,0.1-1.2,1.1s0.2,1,1.5,1C78.7,61.5,79.1,61.4,79.4,60.9z"/>
	<path class="st1" d="M85.7,66.4v-1.7h2.4c2.3,0,2.5-0.3,2.5-2.3V62h-0.1C90,62.8,89,63.2,88,63.1c-2.2,0-3-1-3-4.4s0.8-4.5,3-4.5
		c1-0.1,2,0.4,2.6,1.2h0.1l0.1-1.1h2.1V62c0,3.1-0.3,4.5-4.2,4.5C87.7,66.6,86.7,66.5,85.7,66.4z M90.3,60.6
		c0.2-0.6,0.3-1.3,0.3-1.9c0.1-0.6,0-1.3-0.2-1.9c-0.2-0.4-0.6-0.6-1.4-0.6c-1.5,0-1.7,0.2-1.7,2.5s0.1,2.5,1.7,2.5
		C89.7,61.2,90.1,61,90.3,60.6z"/>
	<path class="st1" d="M103.7,59.4h-5.4c0,1.7,0.1,2,2.4,2c0.7,0,1.8-0.1,2.6-0.2v1.6c-1,0.2-2.1,0.3-3.2,0.3c-3.8,0-4.1-1.2-4.1-4.4
		s0.4-4.5,4-4.5c3.6,0,3.7,1.4,3.7,4.5L103.7,59.4z M98.2,58h3.3c0-1.8-0.3-2-1.6-2C98.4,56.1,98.3,56.4,98.2,58z"/>
	<path class="st1" d="M106.8,54.4h2.1l0.1,1.1h0.1c0.6-0.9,1.6-1.4,2.6-1.2c2.4,0,2.7,1.2,2.7,3.4v5.4h-2.3v-4.6
		c0-2.1-0.1-2.3-1.5-2.3s-1.6,0.7-1.6,2.4v4.5h-2.3L106.8,54.4z"/>
	<path class="st1" d="M120.2,62H120v1.1h-2.1V50.5h2.3v4.9h0.1c0.6-0.8,1.6-1.2,2.6-1.1c2.1,0,2.9,1,2.9,4.5s-0.8,4.5-3,4.5
		C121.7,63.4,120.7,62.9,120.2,62z M123.4,58.7c0-2.3-0.2-2.5-1.7-2.5c-0.7,0-1.1,0.2-1.3,0.5c-0.3,0.6-0.4,1.3-0.3,2
		c-0.1,0.7,0,1.4,0.3,2c0.2,0.4,0.6,0.5,1.3,0.5C123.3,61.3,123.4,61.1,123.4,58.7L123.4,58.7z"/>
	<path class="st1" d="M136.2,59.4h-5.4c0,1.7,0.1,2,2.4,2c0.7,0,1.8-0.1,2.6-0.2v1.6c-1,0.2-2.1,0.3-3.2,0.3c-3.8,0-4.2-1.2-4.2-4.4
		s0.4-4.5,4-4.5s3.7,1.4,3.7,4.5L136.2,59.4z M130.8,58h3.2c0-1.8-0.3-2-1.6-2C130.9,56,130.8,56.3,130.8,58L130.8,58z"/>
	<path class="st1" d="M139.3,54.4h2.1l0.1,1.5h0.1c0.5-1.3,1.4-1.6,2.8-1.6v2.2c-2.2,0-2.8,0.8-2.8,3.2v3.5h-2.3L139.3,54.4z"/>
	<path class="st1" d="M147.2,66.4v-1.7h2.4c2.3,0,2.5-0.3,2.5-2.3V62h-0.1c-0.5,0.8-1.5,1.3-2.5,1.1c-2.2,0-3-1-3-4.4s0.8-4.5,3-4.5
		c1-0.1,2,0.4,2.6,1.2h0.1l0.1-1.1h2.1V62c0,3.1-0.3,4.5-4.2,4.5C149.2,66.6,148.2,66.5,147.2,66.4z M151.9,60.6
		c0.2-0.6,0.3-1.3,0.3-1.9c0.1-0.6,0-1.3-0.2-1.9c-0.2-0.4-0.6-0.6-1.4-0.6c-1.5,0-1.7,0.2-1.7,2.5s0.2,2.5,1.7,2.5
		C151.3,61.2,151.7,61,151.9,60.6L151.9,60.6z"/>
	<path class="st1" d="M162.9,57.2c0-4.7,0.9-6,5.1-6c1.3,0,2.6,0.1,3.9,0.4v1.9c-1-0.1-1.9-0.2-2.9-0.3c-3.2,0-3.6,0.1-3.6,4
		c0,3.5,0.3,4,2.8,4c0.5,0,1,0,1.5-0.1v-2.8h-1.9v-1.9h4.3v6.4c-1.3,0.2-2.6,0.4-3.9,0.4C163.8,63.2,162.9,62.1,162.9,57.2z"/>
	<path class="st1" d="M175.5,54.4h2.1l0.1,1.5h0.1c0.5-1.3,1.4-1.6,2.8-1.6v2.2c-2.2,0-2.8,0.8-2.8,3.2v3.5h-2.3L175.5,54.4z"/>
	<path class="st1" d="M182.8,58.8c0-3.5,0.2-4.5,4-4.5s4,1,4,4.5s-0.2,4.5-4,4.5S182.8,62.2,182.8,58.8z M188.5,58.8
		c0-2.4,0-2.6-1.7-2.6s-1.7,0.3-1.7,2.6s0,2.7,1.7,2.7S188.5,61.1,188.5,58.8z"/>
	<path class="st1" d="M193.8,59.8v-5.4h2.3V59c0,2.1,0.1,2.3,1.5,2.3s1.6-0.7,1.6-2.4v-4.5h2.3v8.7h-2.1l-0.1-1.1h-0.1
		c-0.6,0.9-1.6,1.4-2.6,1.2C194.2,63.2,193.8,62.1,193.8,59.8z"/>
	<path class="st1" d="M204.9,54.4h2.1l0.1,1.1h0.1c0.5-0.9,1.5-1.4,2.6-1.2c2.1,0,3,1,3,4.5s-0.8,4.5-2.9,4.5c-1,0.1-2-0.3-2.5-1.1
		h-0.1v4.3H205L204.9,54.4z M210.5,58.8c0-2.3-0.2-2.5-1.7-2.5c-0.8,0-1.2,0.2-1.4,0.7c-0.2,0.6-0.3,1.2-0.2,1.9
		c0,0.6,0,1.3,0.2,1.9c0.2,0.5,0.6,0.7,1.4,0.7C210.3,61.3,210.5,61.1,210.5,58.8L210.5,58.8z"/>
	<g id="Ebene_3">
		<path class="st1" d="M68.8,38v-4.4l13.6-16.3H69.4v-4.7h19.8V17L75.6,33.3h13.7V38H68.8z"/>
		<path class="st1" d="M96.8,38V12.6h5.2V38H96.8z"/>
		<path class="st1" d="M140.5,24.4c0-1.6-0.1-3.2-0.3-4.8c-0.1-0.8-0.5-1.5-1.2-1.8c-1-0.3-2.1-0.5-3.2-0.4
			c-1.2-0.1-2.4,0.2-3.4,0.8c-0.7,0.6-1.2,1.4-1.4,2.3c-0.3,1.5-0.4,3-0.4,4.5V38h-5.3V24.4c0-1.6-0.1-3.2-0.3-4.8
			c-0.1-0.8-0.5-1.5-1.2-1.8c-1-0.3-2.1-0.5-3.2-0.4c-1.2-0.1-2.4,0.2-3.4,0.8c-0.8,0.6-1.3,1.4-1.4,2.3c-0.3,1.5-0.4,3-0.3,4.5V38
			h-5.3V12.6h4.8l0.2,3.3h0.3c0.5-1.2,1.5-2.2,2.7-2.8c1.5-0.7,3.2-1,4.8-0.9c1.6-0.1,3.3,0.2,4.7,0.9c1.1,0.6,1.9,1.7,2.3,2.9h0.4
			c1.2-2.5,3.8-3.7,7.7-3.7c1.7-0.1,3.4,0.2,4.9,1.1c1.1,0.8,1.9,1.9,2.2,3.2c0.4,1.9,0.7,3.8,0.6,5.7V38h-5.3L140.5,24.4z"/>
		<path class="st1" d="M153.7,36.7c-1.3-1.1-1.9-3-1.9-5.8c-0.1-1.6,0.2-3.2,0.7-4.6c0.4-1.1,1.3-2,2.4-2.5c1.5-0.6,3.1-0.8,4.8-0.8
			c1.9,0,4.8,0.1,8.6,0.2v-1.1c0.1-1.2-0.1-2.4-0.5-3.6c-0.4-0.7-1.1-1.2-1.9-1.4c-1.6-0.2-3.2-0.3-4.8-0.3c-1.1,0-2.4,0-4,0.1
			s-2.8,0.2-3.5,0.3V13c3.1-0.5,6.2-0.8,9.4-0.8c2.4-0.1,4.7,0.2,6.9,1c1.4,0.6,2.5,1.7,3,3.1c0.6,1.9,0.8,4,0.8,6v15.6h-4.8
			l-0.2-3.2h-0.3c-0.7,1.4-1.9,2.4-3.4,2.9c-1.7,0.5-3.4,0.7-5.1,0.7C157,38.4,155,37.8,153.7,36.7z M165.4,33.4
			c0.8-0.2,1.5-0.7,1.9-1.4c0.7-1.4,1-2.9,0.9-4.4v-0.7H161c-0.9,0-1.7,0.1-2.6,0.2c-0.5,0.1-0.9,0.5-1.1,1
			c-0.2,0.7-0.4,1.5-0.3,2.3c0,0.8,0.1,1.5,0.4,2.3c0.3,0.5,0.8,0.9,1.4,1c1.1,0.2,2.2,0.3,3.3,0.2
			C163.2,33.9,164.3,33.8,165.4,33.4L165.4,33.4z"/>
		<rect x="96.7" class="st1" width="5.5" height="5.4"/>
	</g>
	<path class="st1" d="M43.5,25.2H30.9v16.3c0,4.9-4,8.9-8.9,8.9s-8.9-4-8.9-8.9H0.3C0.2,53.4,9.8,63.2,21.8,63.3s21.6-9.5,21.7-21.4
		V25.2z"/>
	<rect x="43.5" y="12.6" class="st2" width="12.6" height="12.6"/>
	<rect x="30.9" y="0" class="st1" width="12.6" height="12.6"/>
</g>
</svg>
