<svg xmlns="http://www.w3.org/2000/svg" width="389" height="91" viewBox="0 0 389 91"><path fill="#3C3C3B" fill-rule="evenodd" d="M151.343 74.309c2.93 0 4.108 1.37 4.108 6.107s-1.095 6.134-3.984 6.134a3.601 3.601 0 0 1-3.465-1.479h-.191V91h-3.095l-.055-16.5h2.917l.082 1.493h.164a3.615 3.615 0 0 1 3.52-1.684zM59.097 34.546v22.716c-.117 16.319-13.441 29.453-29.76 29.336C13.017 86.48-.116 73.156 0 56.838h17.334c0 6.76 5.48 12.24 12.241 12.24 6.761 0 12.242-5.48 12.242-12.24V34.545h17.28zm73.132 39.955v6.284c0 2.89.219 3.095 2.081 3.095 1.862 0 2.232-.904 2.232-3.231V74.5h3.094v11.871h-2.889l-.096-1.493h-.178a3.601 3.601 0 0 1-3.587 1.671c-3.231 0-3.752-1.602-3.752-4.628V74.5h3.095zm-13.09-.192c5.085 0 5.465 1.322 5.476 5.86v.247c0 4.737-.3 6.134-5.476 6.134s-5.477-1.342-5.477-6.134c0-4.793.301-6.107 5.477-6.107zm-26.33-4.163c1.767.026 3.53.196 5.27.507v2.588a38.051 38.051 0 0 0-3.997-.356c-4.382 0-4.998.096-4.998 5.477 0 4.751.438 5.477 3.834 5.477.69.006 1.38-.026 2.067-.096v-3.889h-2.629v-2.642h5.806v8.763a30.575 30.575 0 0 1-5.354.534c-5.874.041-7.051-1.465-7.051-8.147 0-6.422 1.232-8.216 7.051-8.216zm17.457 4.163v2.957c-3.053 0-3.889 1.123-3.889 4.355v4.751h-3.094V74.501h2.903l.096 2.053h.178c.63-1.78 1.89-2.245 3.806-2.245zm8.845 2.492c-2.214 0-2.322.322-2.327 3.158v.913c.005 2.84.113 3.2 2.327 3.2 2.271 0 2.327-.378 2.328-3.423v-.233c0-3.26 0-3.615-2.328-3.615zm30.904.164c-1.095 0-1.657.288-1.93.904a6.353 6.353 0 0 0-.329 2.56c-.06.86.041 1.725.301 2.547.288.644.863.904 1.958.904 2.028 0 2.275-.286 2.286-3.214v-.237c0-3.135-.232-3.464-2.286-3.464zm7.654-60.383a17.43 17.43 0 0 1 6.422 1.081 7.64 7.64 0 0 1 4.108 3.985h.397l.274-4.519h6.504v30.384a43.213 43.213 0 0 1-1.027 10.858 8.571 8.571 0 0 1-4.396 5.477c-2.245 1.191-5.71 1.794-10.42 1.794-2.19-.055-4.367-.055-6.572-.206-2.19-.137-3.943-.301-5.23-.479v-5.943a213.9 213.9 0 0 0 10.132.26 22.702 22.702 0 0 0 7.052-.766 4.245 4.245 0 0 0 2.738-2.739 24 24 0 0 0 .63-6.586v-1.807h-.329a7.23 7.23 0 0 1-3.902 3.56 18.622 18.622 0 0 1-6.477.958c-2.513.134-5.017-.4-7.257-1.547a8.845 8.845 0 0 1-3.697-5.299 38.339 38.339 0 0 1-1.136-10.611 39.927 39.927 0 0 1 1.136-10.79 8.9 8.9 0 0 1 3.752-5.477 14.185 14.185 0 0 1 7.298-1.588zm213.507.095a17.513 17.513 0 0 1 6.435 1.082 7.681 7.681 0 0 1 4.108 3.985h.41l.26-4.519h6.464v30.288a43.213 43.213 0 0 1-1.027 10.858 8.654 8.654 0 0 1-4.396 5.477c-2.245 1.187-5.719 1.784-10.42 1.794-2.136-.055-4.326-.055-6.517-.206-2.205-.137-3.944-.301-5.23-.479v-5.943c3.724.178 7.106.26 10.118.26a22.579 22.579 0 0 0 7.052-.766 4.245 4.245 0 0 0 2.738-2.739 24 24 0 0 0 .63-6.586v-1.807h-.329a7.243 7.243 0 0 1-3.888 3.56 18.622 18.622 0 0 1-6.408.958c-2.514.134-5.017-.4-7.257-1.547a8.804 8.804 0 0 1-3.793-5.299 38.435 38.435 0 0 1-1.123-10.611 39.999 39.999 0 0 1 1.123-10.79 8.927 8.927 0 0 1 3.765-5.477 14.158 14.158 0 0 1 7.285-1.493zm-271.398.548v36.97a17.992 17.992 0 0 1-1.123 7.435 5.477 5.477 0 0 1-3.766 2.985 36.46 36.46 0 0 1-8.215.67l-.055-5.873a18.252 18.252 0 0 0 4.108-.33 2.382 2.382 0 0 0 1.63-1.08 5.477 5.477 0 0 0 .369-2.301V17.225h7.052zM266.66 0v21.21h.452a7.654 7.654 0 0 1 4.108-3.547 18.498 18.498 0 0 1 6.517-.986 13.5 13.5 0 0 1 7.134 1.589 8.996 8.996 0 0 1 3.629 5.477 41.365 41.365 0 0 1 1.095 10.79 39.927 39.927 0 0 1-1.136 10.789 9.023 9.023 0 0 1-3.725 5.409 13.953 13.953 0 0 1-7.257 1.588 18.006 18.006 0 0 1-6.572-1.123 7.462 7.462 0 0 1-4.108-3.957h-.465l-.206 4.464h-6.517V0h7.051zm-134.8 18.02a7.257 7.257 0 0 1 4.026 4.23 25.755 25.755 0 0 1 1 8.216v21.223h-6.464l-.232-4.382h-.398a7.613 7.613 0 0 1-4.532 3.958 21.908 21.908 0 0 1-6.846.985c-3.67 0-6.358-.766-8.065-2.3-1.707-1.534-2.56-4.149-2.56-7.846a16.979 16.979 0 0 1 .93-6.326 6.093 6.093 0 0 1 3.191-3.313 15.678 15.678 0 0 1 6.395-1.04c2.528 0 6.367.086 11.515.26v-1.48a12.323 12.323 0 0 0-.698-4.901 3.45 3.45 0 0 0-2.56-1.863 34.454 34.454 0 0 0-6.464-.41c-1.46 0-3.254.068-5.38.205-2.137.137-3.712.301-4.738.48v-6.053a71.521 71.521 0 0 1 12.583-1.013c3.16-.169 6.32.297 9.297 1.37zm180.138-1.343c4.354 0 7.517.607 9.489 1.821a8.037 8.037 0 0 1 3.738 5.313c.606 3.54.862 7.131.767 10.721v2.506H303.81a20.703 20.703 0 0 0 .575 5.847 3.752 3.752 0 0 0 2.656 2.396c2.321.556 4.708.786 7.093.685a97.791 97.791 0 0 0 10.516-.685v5.956c-1.845.367-3.71.613-5.587.74a84.14 84.14 0 0 1-6.586.273c-4.756 0-8.243-.552-10.46-1.656a8.037 8.037 0 0 1-4.328-5.245 43.076 43.076 0 0 1-1-10.817 42.227 42.227 0 0 1 1-10.557 8.681 8.681 0 0 1 4.259-5.477c2.172-1.214 5.522-1.82 10.05-1.82zm-112.73 0c4.573 0 7.517.603 9.489 1.821a8.01 8.01 0 0 1 3.724 5.313c.613 3.54.87 7.131.767 10.721v2.506H191.08a21.36 21.36 0 0 0 .561 5.847 3.793 3.793 0 0 0 2.739 2.396c2.32.556 4.708.786 7.092.685a97.791 97.791 0 0 0 10.516-.685v5.956c-1.844.367-3.71.613-5.586.74a84.483 84.483 0 0 1-6.6.273c-4.756 0-8.238-.552-10.447-1.656a7.996 7.996 0 0 1-4.396-5.245 43.076 43.076 0 0 1-1-10.817 42.227 42.227 0 0 1 1-10.557 8.64 8.64 0 0 1 4.259-5.477c2.177-1.218 5.477-1.82 10.05-1.82zm153.698 0v7.435a14.65 14.65 0 0 0-6.956 1.37 7.065 7.065 0 0 0-3.396 4.107 24.948 24.948 0 0 0-.972 7.805V51.73h-7.052l.041-34.505h6.422l.26 6.148h.534a8.517 8.517 0 0 1 3.89-5.244 15.267 15.267 0 0 1 7.229-1.452zM245.602 18.17a7.298 7.298 0 0 1 3.218 4.286c.634 2.509.915 5.094.835 7.681v21.566h-7.051l.013-18.526a32.465 32.465 0 0 0-.465-6.586 3.314 3.314 0 0 0-1.862-2.506 14.309 14.309 0 0 0-4.861-.575 9.694 9.694 0 0 0-5.162 1.082 5.025 5.025 0 0 0-2.205 3.204 28.918 28.918 0 0 0-.493 6.12v17.8h-7.01v-34.49h6.531l.192 4.518h.534a7.86 7.86 0 0 1 3.697-3.82 16.245 16.245 0 0 1 7.024-1.247 13.5 13.5 0 0 1 7.065 1.493zM116.73 36.9a2.314 2.314 0 0 0-1.602 1.3 8.544 8.544 0 0 0-.425 3.123 7.134 7.134 0 0 0 .493 3.067 2.738 2.738 0 0 0 1.904 1.37 21.54 21.54 0 0 0 4.45.328c1.531.05 3.061-.144 4.532-.575a4.532 4.532 0 0 0 2.601-1.986 11.98 11.98 0 0 0 1.192-5.956V36.56h-9.722a12.323 12.323 0 0 0-3.423.342zm157.777-13.39a12.542 12.542 0 0 0-4.19.575 4.204 4.204 0 0 0-2.341 1.862 7.421 7.421 0 0 0-1.055 3.204 41.735 41.735 0 0 0-.274 5.313c-.02 1.784.071 3.567.274 5.34a8.01 8.01 0 0 0 1.055 3.314c.986 1.574 3.149 2.368 6.53 2.368a13.83 13.83 0 0 0 5.286-.712 3.916 3.916 0 0 0 2.109-2.902c.436-2.444.615-4.927.534-7.408a34.779 34.779 0 0 0-.534-7.367 3.889 3.889 0 0 0-2.109-2.875 13.83 13.83 0 0 0-5.285-.712zm94.3.643a3.916 3.916 0 0 0-2.095 2.876 34.779 34.779 0 0 0-.534 7.366 34.368 34.368 0 0 0 .534 7.298 3.916 3.916 0 0 0 2.095 2.876 13.87 13.87 0 0 0 5.299.712c1.429.05 2.855-.17 4.203-.644a4.792 4.792 0 0 0 2.451-1.93 7.64 7.64 0 0 0 .931-3.067 51.58 51.58 0 0 0 .192-5.245 51.57 51.57 0 0 0-.192-5.244 7.64 7.64 0 0 0-.93-3.067 4.697 4.697 0 0 0-2.397-1.999 11.762 11.762 0 0 0-4.258-.644 13.87 13.87 0 0 0-5.3.712zm-213.602 0a3.916 3.916 0 0 0-2.095 2.876 34.779 34.779 0 0 0-.534 7.366 34.368 34.368 0 0 0 .534 7.298 3.916 3.916 0 0 0 2.095 2.876c1.703.578 3.503.82 5.299.712a11.42 11.42 0 0 0 4.272-.644 4.792 4.792 0 0 0 2.382-1.93 7.23 7.23 0 0 0 .931-3.067c.159-1.744.227-3.494.206-5.245a51.01 51.01 0 0 0-.206-5.244 7.23 7.23 0 0 0-.93-3.067 4.697 4.697 0 0 0-2.397-1.999 11.707 11.707 0 0 0-4.258-.644 13.912 13.912 0 0 0-5.3.712zM59.097 0v17.266h17.28v17.28h-17.28V17.28h-17.28V0h17.28zm252.708 22.962a14.268 14.268 0 0 0-5.176.712h-.054a3.78 3.78 0 0 0-2.164 2.465 23.4 23.4 0 0 0-.602 5.682h15.459v-.137a17.923 17.923 0 0 0-.671-5.668 3.875 3.875 0 0 0-2.164-2.438 12.967 12.967 0 0 0-4.628-.616zm-117.96.712a3.752 3.752 0 0 0-2.164 2.465 22.73 22.73 0 0 0-.602 5.682h15.445v-.137a18.006 18.006 0 0 0-.657-5.668 3.889 3.889 0 0 0-2.177-2.438 12.83 12.83 0 0 0-4.615-.616 14.172 14.172 0 0 0-5.23.712zM100.065 0v7.298h-7.462V0h7.462z"/></svg>